M48
INCH
T01C.013
T02C.02756
T03C.03937
T04C.04331
;LEADER: 12 
;HEADER: 
;CODE  : ASCII 
;FILE  : stm32f103c8t6-1-2.drl for  ... layers TOP and BOTTOM
;T01 Holesize 1. = 13.000000 Tolerance = +0.000000/-0.000000 PLATED MILS Quantity = 135
;T02 Holesize 2. = 27.560000 Tolerance = +0.000000/-0.000000 PLATED MILS Quantity = 2
;T03 Holesize 3. = 39.370000 Tolerance = +0.000000/-0.000000 PLATED MILS Quantity = 58
;T04 Holesize 4. = 43.310000 Tolerance = +0.000000/-0.000000 PLATED MILS Quantity = 2
%
G90
T01
X0105000Y0132500
X0085000Y0132500
X0117500Y0290000
X0140000Y0290000
X0176000Y0099000
X0115000Y0197500
X0122500Y0172500
X0102500Y0205000
X0145300Y0267500
X0142500Y0277500
X0080000Y0352500
X0155000Y0247500
X0147500Y0220000
X0165000Y0197500
X0167500Y0245000
X0157500Y0387500
X0162500Y0377500
X0075500Y0148000
X0075500Y0182000
X0087000Y0182000
X0102500Y0195000
X0065500Y0148000
X0065000Y0162500
X0105000Y0305000
X0045000Y0275000
X0030000Y0270000
R02Y-0010000
X0035362Y0175362
X0035000Y0140000
X0035000Y0157500
X0035362Y0209638
X0052500Y0200000
X0057500Y0210000
X0115000Y0205000
X0102500Y0210000
X0110000Y0212500
X0139327Y0214327
X0150000Y0272500
X0025000Y0382500
X0047500Y0362500
X0142500Y0400000
X0142500Y0372500
X0177500Y0110000
R03X0005000
X0145000Y0245000
X0167500Y0265000
X0180000Y0277500
X0100000Y0075000
X0100000Y0090000
X0125000Y0107500
X0130000Y0125000
X0117500Y0125000
X0062500Y0140000
X0045000Y0345000
X0087500Y0225000
X0087500Y0285000
X0067846Y0219654
X0065000Y0202500
X0132500Y0175000
X0115000Y0172500
X0100000Y0167500
X0032500Y0162500
X0092500Y0375000
X0127500Y0307500
X0122500Y0247500
X0160000Y0207500
X0065000Y0380000
X0115000Y0302500
X0117500Y0247500
X0120000Y0207500
X0110000Y0067500
X0095000Y0107500
X0105000Y0087457
X0087500Y0105000
X0075000Y0102500
X0062500Y0110000
X0162500Y0362500
X0122500Y0405000
X0125000Y0370000
X0092500Y0397500
X0072500Y0380000
X0047500Y0132500
X0035000Y0242500
X0035000Y0257500
X0040000Y0332500
X0065000Y0132500
X0110000Y0127500
X0137500Y0127500
X0140000Y0112500
X0152500Y0112500
X0057500Y0095000
X0082500Y0110000
X0085000Y0082500
X0038114Y0393114
X0147500Y0262500
X0115000Y0262500
X0105000Y0262500
X0092500Y0240000
X0082500Y0247500
X0062000Y0226346
X0075000Y0227500
X0045000Y0247500
X0057500Y0252500
X0167500Y0157500
X0100000Y0162500
X0079700Y0200000
X0099500Y0148000
X0080000Y0190000
X0065000Y0190000
X0054846Y0175362
X0146472Y0101028
X0075000Y0205000
X0065000Y0175000
X0047500Y0117500
X0047500Y0107500
X0122500Y0180000
X0090000Y0085000
X0092500Y0090000
X0102500Y0082500
X0042500Y0092500
X0080000Y0087500
X0100000Y0107500
X0112500Y0097500
X0105000Y0155000
X0070000Y0160000
X0082500Y0207500
X0152500Y0217500
X0075000Y0242500
X0110000Y0235000
X0050000Y0392500
X0045000Y0230000
X0045000Y0237500
T02
X0052453Y0401886
X0071547Y0401886
T03
X0016000Y0087500
R19Y0010000
X0017000Y0362500
X0027000Y0362500
X0124000Y0344500
R02Y-0010000
X0134000Y0344500
R02Y-0010000
X0166000Y0324500
R02Y0010000
X0212000Y0087500
R19Y0010000
X0106000Y0043000
R03X-0010000
X0196500Y0344500
R02Y-0010000
T04
X0047728Y0412437
X0076272Y0412437
M30
