G04 ================== begin FILE IDENTIFICATION RECORD ==================*
G04 Layout Name:  C:/Users/Pizza/Desktop/stm32pcb/pcb_design/stm32f103c8t6.brd*
G04 Film Name:    TOP*
G04 File Format:  Gerber RS274X*
G04 File Origin:  Cadence Allegro 16.6-P004*
G04 Origin Date:  Wed May 17 18:36:36 2023*
G04 *
G04 Layer:  BOARD GEOMETRY/OUTLINE*
G04 Layer:  ETCH/TOP*
G04 Layer:  PIN/TOP*
G04 Layer:  VIA CLASS/TOP*
G04 *
G04 Offset:    (0.00 0.00)*
G04 Mirror:    No*
G04 Mode:      Positive*
G04 Rotation:  0*
G04 FullContactRelief:  No*
G04 UndefLineWidth:     0.00*
G04 ================== end FILE IDENTIFICATION RECORD ====================*
%FSLAX55Y55*MOIN*%
%IR0*IPPOS*OFA0.00000B0.00000*MIA0B0*SFA1.00000B1.00000*%
%ADD14C,.024*%
%ADD10R,.09252X.12008*%
%ADD27R,.12008X.09252*%
%ADD20C,.04724*%
%ADD19C,.05906*%
%ADD11C,.07087*%
%ADD28R,.11811X.07874*%
%ADD30R,.18386X.06614*%
%ADD18R,.054X.075*%
%ADD12R,.11811X.35433*%
%ADD17C,.35433*%
%ADD31R,.02323X.05472*%
%ADD29R,.05472X.02323*%
%ADD24R,.01181X.05906*%
%ADD25R,.05906X.01181*%
%ADD16R,.03937X.04331*%
%ADD13R,.04331X.03937*%
%ADD15R,.05118X.05906*%
%ADD26R,.07874X.02362*%
%ADD23R,.01575X.06299*%
%ADD21R,.01378X.06299*%
%ADD22R,.01969X.03937*%
%ADD32C,.01*%
%ADD33C,.02*%
%ADD34C,.015*%
%ADD35C,.006*%
%ADD39C,.0691*%
%ADD37C,.0809*%
%ADD43R,.10254X.13012*%
%ADD40R,.13012X.10254*%
%ADD36C,.20604*%
%ADD38R,.12814X.36436*%
%ADD42R,.06474X.03326*%
%ADD41R,.03326X.06474*%
G75*
%LPD*%
G75*
G36*
G01X8000Y1969D02*
G02X1969Y8000I0J6031D01*
G01Y421134D01*
G02X8000Y427165I6031J0D01*
G01X224282D01*
G02X230313Y421134I0J-6031D01*
G01Y8000D01*
G02X224282Y1969I-6031J0D01*
G01X8000D01*
G37*
%LPC*%
G75*
G36*
G01X93759Y392704D02*
X92145Y394318D01*
X92078Y394326D01*
G02X95674Y397922I422J3174D01*
G01X95682Y397855D01*
X95831Y397706D01*
X98494D01*
Y401832D01*
X110968D01*
X116637Y407502D01*
X120502D01*
G02Y402498I1998J-2502D01*
G01X118709D01*
X114506Y398295D01*
Y388578D01*
X98494D01*
Y392704D01*
X93759D01*
G37*
G36*
G01X144498Y402502D02*
X153550D01*
X158847Y397204D01*
Y397195D01*
X159074Y396970D01*
X160513D01*
Y395864D01*
X160919Y395502D01*
X166963D01*
X167114Y395653D01*
G03X166973Y395995I-141J142D01*
G01X165168D01*
Y412006D01*
X178422D01*
Y395994D01*
X174296D01*
Y395760D01*
X169035Y390498D01*
X160919D01*
X159919Y389605D01*
X160033Y389458D01*
G02X155502Y384998I-2533J-1959D01*
G01X150950D01*
X147152Y388796D01*
Y388805D01*
X146926Y389030D01*
X145487D01*
Y396970D01*
X151524D01*
G03X151665Y397311I-1J200D01*
G01X151478Y397498D01*
X144498D01*
G02Y402502I-1998J2502D01*
G37*
G36*
G01X164516Y379987D02*
G03X165168Y380298I252J311D01*
G01Y383006D01*
X178422D01*
Y366994D01*
X174296D01*
Y366760D01*
X167535Y359998D01*
X164498D01*
G02X164445Y365043I-1998J2502D01*
G01X164499Y365002D01*
X165463D01*
X166773Y366312D01*
G03X166490Y366994I-283J282D01*
G01X165167D01*
Y374702D01*
G03X164516Y375013I-400J0D01*
G02X162922Y374326I-2017J2487D01*
G01X162855Y374318D01*
X161036Y372498D01*
X160919D01*
X158538Y370371D01*
X157771Y371030D01*
X152179D01*
Y372530D01*
X146987D01*
Y377470D01*
X152179D01*
Y378970D01*
X159656D01*
G02X164516Y379987I2844J-1470D01*
G37*
G36*
G01X169000Y329836D02*
G03Y329164I216J-336D01*
G02X163000I-3000J-4664D01*
G03Y329836I-216J336D01*
G02X169000I3000J4664D01*
G37*
G36*
G01X43002Y272498D02*
X36036D01*
X33182Y269645D01*
X33174Y269578D01*
G02X29578Y273174I-3174J422D01*
G01X29645Y273182D01*
X33964Y277502D01*
X43002D01*
G02Y272498I1998J-2502D01*
G37*
G36*
G01X37502Y138002D02*
Y105464D01*
X21545Y89508D01*
Y87602D01*
G02X13000Y92164I-5545J-102D01*
G03Y92837I-216J336D01*
G02X21545Y97545I3000J4663D01*
G03X22228Y97265I400J3D01*
G01X32498Y107536D01*
Y138002D01*
G02X37502I2502J1998D01*
G37*
G36*
G01X153541Y86512D02*
X169298D01*
X171692Y88906D01*
X171762D01*
X172030Y89166D01*
Y97013D01*
X173136D01*
X173329Y97229D01*
X173253Y97355D01*
G02X178747I2747J1645D01*
G01X178671Y97229D01*
X180629Y95038D01*
X179970Y94271D01*
Y81987D01*
X174864D01*
X174056Y81175D01*
X172883Y82314D01*
X171578Y81008D01*
X153541D01*
X152677Y80304D01*
X151938Y80597D01*
X144850D01*
Y84337D01*
X144050D01*
X143164Y83338D01*
Y75727D01*
X146140Y72752D01*
X179702D01*
X186122Y66332D01*
Y65994D01*
X191277D01*
Y54116D01*
X175463D01*
Y65994D01*
X177712D01*
G03X177995Y66676I0J400D01*
G01X177422Y67248D01*
X143860D01*
X137662Y73447D01*
Y83338D01*
X136776Y84337D01*
X135676D01*
Y85579D01*
X134614Y86777D01*
G02X134675Y87089I150J133D01*
G01X135676Y87582D01*
Y90663D01*
X145150D01*
Y87582D01*
X146487Y86923D01*
X151938D01*
X152677Y87216D01*
X153541Y86512D01*
G37*
G36*
G01X81336Y40000D02*
G03X80664I-336J-216D01*
G02Y46000I-4664J3000D01*
G03X81336I336J216D01*
G02X90664I4664J-3000D01*
G03X91336I336J216D01*
G02X100664I4664J-3000D01*
G03X101336I336J216D01*
G02Y40000I4664J-3000D01*
G03X100664I-336J-216D01*
G02X91336I-4664J3000D01*
G03X90664I-336J-216D01*
G02X81336I-4664J3000D01*
G37*
G36*
G01X190956Y332493D02*
Y334356D01*
G02X193500Y339164I5544J144D01*
G03Y339837I-216J337D01*
G02X199500I3000J4663D01*
G03Y339164I216J-336D01*
G02Y329836I-3000J-4664D01*
G03Y329163I216J-337D01*
G02X190955Y324455I-3000J-4663D01*
G03X190272Y324735I-400J-3D01*
G01X187502Y321964D01*
Y276464D01*
X159222Y248184D01*
G03X159505Y247502I283J-282D01*
G01X165502D01*
G02X170690Y244735I1998J-2502D01*
G03X171089Y244302I399J-33D01*
G01X175264D01*
X206456Y275493D01*
Y277356D01*
G02X215001Y272836I5544J144D01*
G03Y272164I216J-336D01*
G02Y262836I-3001J-4664D01*
G03Y262164I216J-336D01*
G02Y252836I-3001J-4664D01*
G03Y252164I216J-336D01*
G02Y242836I-3001J-4664D01*
G03Y242164I216J-336D01*
G02Y232836I-3001J-4664D01*
G03Y232164I216J-336D01*
G02Y222836I-3001J-4664D01*
G03Y222164I216J-336D01*
G02Y212836I-3001J-4664D01*
G03Y212164I216J-336D01*
G02Y202836I-3001J-4664D01*
G03Y202164I216J-336D01*
G02Y192836I-3001J-4664D01*
G03Y192164I216J-336D01*
G02Y182836I-3001J-4664D01*
G03Y182164I216J-336D01*
G02Y172836I-3001J-4664D01*
G03Y172164I216J-336D01*
G02Y162836I-3001J-4664D01*
G03Y162164I216J-336D01*
G02Y152836I-3001J-4664D01*
G03Y152164I216J-336D01*
G02Y142836I-3001J-4664D01*
G03Y142164I216J-336D01*
G02Y132836I-3001J-4664D01*
G03Y132164I216J-336D01*
G02Y122836I-3001J-4664D01*
G03Y122164I216J-336D01*
G02X216700Y114556I-3001J-4664D01*
G01X216615Y114421D01*
X220002Y111035D01*
Y101964D01*
X217545Y99508D01*
Y97602D01*
G02X215001Y92836I-5545J-102D01*
G03Y92164I216J-336D01*
G02X212000Y81954I-3001J-4664D01*
G01X210346D01*
X204098Y75706D01*
Y47857D01*
X206242Y45362D01*
X205513Y44636D01*
Y39530D01*
X190487D01*
Y40605D01*
X190318Y40748D01*
X177859D01*
X161304Y57304D01*
X153481D01*
Y54116D01*
X137667D01*
Y65994D01*
X153481D01*
Y62806D01*
X163584D01*
X180139Y46252D01*
X190318D01*
X192478Y48085D01*
X193214Y47470D01*
X198262D01*
X198594Y47857D01*
Y77986D01*
X206455Y85846D01*
Y87399D01*
G02X208999Y92164I5545J101D01*
G03Y92836I-216J336D01*
G02X212000Y103046I3001J4664D01*
G01X214008D01*
X214998Y104036D01*
Y104508D01*
X214723D01*
X214667Y104458D01*
G02X208811Y109988I-2667J3041D01*
G01X194998Y123801D01*
Y135872D01*
X146407Y184464D01*
X126346D01*
X124919Y183139D01*
Y182010D01*
X123704D01*
X122028Y180454D01*
G02X121697Y180554I-136J146D01*
G01X121344Y182010D01*
X120892D01*
Y177646D01*
X121036Y177502D01*
X130502D01*
G02Y172498I1998J-2502D01*
G01X125707D01*
X125696Y172310D01*
G02X122922Y169326I-3196J190D01*
G01X122855Y169318D01*
X122190Y168653D01*
G03X122473Y167970I283J-283D01*
G01X126013D01*
Y166864D01*
X126419Y166502D01*
X147581D01*
X147987Y166864D01*
Y167970D01*
X156321D01*
Y166470D01*
X161513D01*
Y161530D01*
X156563D01*
X154656Y159417D01*
Y153881D01*
X160494Y148043D01*
Y147808D01*
X169186D01*
Y137192D01*
X146798D01*
Y147808D01*
X152687D01*
G03X152970Y148491I0J400D01*
G01X149652Y151809D01*
Y159417D01*
X148574Y160611D01*
X147581Y161498D01*
X126419D01*
X124079Y159407D01*
G03X124062Y158826I266J-299D01*
G01X124510Y158379D01*
Y147808D01*
X133202D01*
Y137192D01*
X110814D01*
Y147808D01*
X119506D01*
Y156307D01*
X116836Y158977D01*
X110358Y152498D01*
X106998D01*
G02X102373Y153170I-1998J2502D01*
G03X101762Y153224I-328J-229D01*
G01X101036Y152498D01*
X68536D01*
X67276Y151238D01*
G03X67330Y150627I283J-283D01*
G02X67498Y150502I-1826J-2630D01*
G01X73502D01*
G02X77445Y150543I1998J-2502D01*
G01X77499Y150502D01*
X78581D01*
X78987Y150864D01*
Y151970D01*
X87321D01*
Y150470D01*
X92513D01*
Y145530D01*
X87321D01*
Y144030D01*
X78987D01*
Y145136D01*
X78581Y145498D01*
X77499D01*
X77445Y145457D01*
G02X73502Y145498I-1945J2543D01*
G01X67498D01*
G02X62873Y146170I-1998J2502D01*
G03X62262Y146224I-328J-229D01*
G01X61214Y145177D01*
X63287Y143104D01*
X63338Y143090D01*
G02X59410Y139162I-838J-3090D01*
G01X59396Y139213D01*
X58983Y139626D01*
G03X58300Y139343I-283J-283D01*
G01Y135252D01*
X63362D01*
G02X68197Y132678I1638J-2752D01*
G03X68879Y132418I399J23D01*
G01X71463Y135002D01*
X83002D01*
G02X86998I1998J-2502D01*
G01X96036D01*
X100832Y130206D01*
G03X101514Y130489I282J283D01*
G01Y132552D01*
X101817Y132855D01*
X101826Y132922D01*
G02X106617Y129736I3174J-422D01*
G01X106518Y129678D01*
Y129363D01*
G03X107260Y129156I400J0D01*
G02X109162Y130590I2740J-1656D01*
G01X109213Y130604D01*
X111360Y132752D01*
X136140D01*
X138287Y130604D01*
X138338Y130590D01*
G02X134410Y126662I-838J-3090D01*
G01X134396Y126713D01*
X133860Y127248D01*
X133091D01*
G03X132748Y126643I0J-400D01*
G02X132618Y123156I-2748J-1643D01*
G03X132945Y122526I327J-230D01*
G01X183512D01*
X192855Y113182D01*
X192922Y113174D01*
G02X190278Y107695I-422J-3174D01*
G03X189722I-278J-287D01*
G02X185278I-2222J2305D01*
G03X184722I-278J-287D01*
G02X180278I-2222J2305D01*
G03X179722I-278J-287D01*
G02X175502Y107498I-2222J2305D01*
G01X136970D01*
Y100679D01*
X135470D01*
Y95487D01*
X130530D01*
Y100472D01*
X128643Y102094D01*
X106706D01*
Y99306D01*
G02X107018Y97976I-2689J-1332D01*
G01Y94870D01*
X107364Y94524D01*
X109983D01*
G03X110262Y95210I0J400D01*
G02X115411Y98834I2238J2290D01*
G01X118458Y95786D01*
Y95492D01*
X126513D01*
Y90404D01*
X127294Y89649D01*
X124848Y86939D01*
Y81583D01*
X126423Y79838D01*
X126887Y75997D01*
X127502Y75382D01*
Y66118D01*
X126887Y65503D01*
X126102Y59002D01*
G02X125775Y58872I-199J24D01*
G01X123787Y60530D01*
X111487D01*
Y61636D01*
X111081Y61998D01*
X109564D01*
X107498Y64064D01*
Y65502D01*
G02X108170Y70127I2502J1998D01*
G03X108224Y70738I-229J328D01*
G01X103879Y75084D01*
G03X103197Y74823I-283J-283D01*
G02X98002Y72498I-3197J177D01*
G01X95800D01*
Y65546D01*
X89820D01*
Y64046D01*
X80700D01*
Y73954D01*
X82531D01*
X82758Y74180D01*
Y74189D01*
X83585Y75016D01*
G03X83302Y75698I-283J282D01*
G01X79236D01*
X74712Y71174D01*
X66639D01*
X64783Y73030D01*
X59987D01*
Y73498D01*
X57919D01*
X55538Y71371D01*
X54771Y72030D01*
X52717D01*
X49706Y69020D01*
Y51506D01*
X53832D01*
Y35494D01*
X40578D01*
Y51506D01*
X44704D01*
Y71092D01*
X44959Y71347D01*
G03X44676Y72030I-283J283D01*
G01X42487D01*
Y77118D01*
X41706Y77873D01*
X44152Y80583D01*
Y85190D01*
X54318Y95355D01*
X54326Y95422D01*
G02X57922Y91826I3174J-422D01*
G01X57855Y91818D01*
X49156Y83118D01*
Y80583D01*
X49709Y79970D01*
X57513D01*
Y78864D01*
X57919Y78502D01*
X58753D01*
X59753Y79502D01*
X59762D01*
X59883Y79624D01*
X61652Y81583D01*
Y98097D01*
X61204Y98546D01*
X59180D01*
Y100046D01*
X53200D01*
Y106954D01*
X59180D01*
Y107232D01*
X59944Y108065D01*
X59854Y108196D01*
G02X59536Y111210I2646J1803D01*
G01X59583Y111328D01*
X59180Y111768D01*
Y112046D01*
X53200D01*
Y118954D01*
X59180D01*
Y120046D01*
X52937D01*
X50472Y122248D01*
X46140D01*
X45252Y121360D01*
Y94138D01*
G02X43338Y89410I-2752J-1637D01*
G01X43287Y89396D01*
X25546Y71655D01*
Y51506D01*
X29422D01*
Y35494D01*
X16168D01*
Y51506D01*
X20044D01*
Y73935D01*
X39396Y93287D01*
X39410Y93338D01*
G02X39748Y94138I3091J-835D01*
G01Y123640D01*
X43860Y127752D01*
X50472D01*
X51925Y129050D01*
G03X51659Y129748I-266J298D01*
G01X49138D01*
G02X44410Y131662I-1637J2752D01*
G01X44396Y131713D01*
X43508Y132600D01*
Y133733D01*
X41700Y135793D01*
Y144454D01*
X54409D01*
X54612Y144657D01*
G03X54470Y144998I-142J141D01*
G01X27036D01*
X21545Y139508D01*
Y137602D01*
G02X19000Y132836I-5545J-102D01*
G03Y132163I216J-337D01*
G02Y122836I-3000J-4664D01*
G03Y122164I216J-336D01*
G02X13000I-3000J-4664D01*
G03Y122836I-216J336D01*
G02Y132163I3000J4663D01*
G03Y132836I-216J336D01*
G02X12999Y142164I3000J4664D01*
G03Y142836I-216J336D01*
G02Y152164I3001J4664D01*
G03Y152836I-216J336D01*
G02Y162164I3001J4664D01*
G03Y162836I-216J336D01*
G02Y172164I3001J4664D01*
G03Y172836I-216J336D01*
G02Y182164I3001J4664D01*
G03Y182836I-216J336D01*
G02Y192164I3001J4664D01*
G03Y192836I-216J336D01*
G02Y202164I3001J4664D01*
G03Y202836I-216J336D01*
G02Y212164I3001J4664D01*
G03Y212836I-216J336D01*
G02Y222164I3001J4664D01*
G03Y222836I-216J336D01*
G02Y232164I3001J4664D01*
G03Y232836I-216J336D01*
G02Y242164I3001J4664D01*
G03Y242836I-216J336D01*
G02X10455Y247602I3001J4664D01*
G01Y249508D01*
X5780Y254182D01*
Y259317D01*
X11193Y264730D01*
X11123Y264861D01*
G02X10456Y267644I4877J2640D01*
G01Y269507D01*
X4998Y274964D01*
Y377247D01*
X8253Y380502D01*
X8262D01*
X8487Y380728D01*
Y381970D01*
X16618D01*
X16844Y382195D01*
Y382204D01*
X19642Y385002D01*
X23002D01*
G02X24034Y379448I1998J-2502D01*
G03X23513Y379066I-121J-381D01*
G01Y374030D01*
X10002D01*
Y277036D01*
X10273Y276765D01*
X10479Y276971D01*
X10472Y277063D01*
G02X19000Y272837I5528J437D01*
G03Y272164I216J-336D01*
G02X21241Y265688I-3000J-4664D01*
G03X21619Y265158I378J-130D01*
G01X43380D01*
X71816Y236722D01*
G03X72498Y237005I282J283D01*
G01Y240502D01*
G02X72813Y244838I2502J1998D01*
G03X72540Y245530I-273J292D01*
G01X70679D01*
Y247030D01*
X65487D01*
Y251970D01*
X70679D01*
Y253470D01*
X75475D01*
X80986Y258981D01*
G03X80703Y259664I-283J283D01*
G01X78201D01*
X76690Y258152D01*
X75083D01*
X72373Y255706D01*
X71618Y256487D01*
X66530D01*
Y271487D01*
X66030D01*
Y286513D01*
X71118D01*
X71873Y287294D01*
X74583Y284848D01*
X84296D01*
X84298Y285045D01*
G02X84748Y286638I3202J-44D01*
G01Y296360D01*
X81861Y299248D01*
X81723Y299145D01*
G02X54145Y326723I-11723J15855D01*
G01X54248Y326861D01*
X42248Y338860D01*
Y343362D01*
G02X41896Y344212I2752J1638D01*
G01X41860Y344248D01*
X38182D01*
X36022Y342415D01*
X35286Y343030D01*
X34327D01*
G03X34044Y342347I0J-400D01*
G01X40787Y335604D01*
X40838Y335590D01*
G02X36910Y331662I-838J-3090D01*
G01X36896Y331713D01*
X27483Y341126D01*
X24418Y343030D01*
X22987D01*
Y343919D01*
X22029Y344514D01*
G02X21992Y344823I106J169D01*
G01X22987Y345846D01*
Y347079D01*
X20894Y349172D01*
Y357690D01*
G03X20258Y358013I-400J0D01*
G02X21663Y365500I-3258J4487D01*
G03X22336I337J216D01*
G02X27000Y368046I4664J-2999D01*
G01X28654D01*
X30248Y369640D01*
Y373318D01*
X28415Y375478D01*
X29030Y376214D01*
Y381821D01*
X30530D01*
Y387013D01*
X35470D01*
Y382063D01*
X37029Y380656D01*
X37417D01*
X39530Y382563D01*
Y387513D01*
X44470D01*
Y382321D01*
X45970D01*
Y375656D01*
X48417D01*
X49030Y376209D01*
Y384016D01*
G03X49267Y384696I-46J397D01*
G01X39464Y394498D01*
X23919D01*
X21538Y392371D01*
X20771Y393030D01*
X15179D01*
Y394530D01*
X9987D01*
Y399470D01*
X15179D01*
Y400970D01*
X23513D01*
Y399864D01*
X23919Y399502D01*
X41536D01*
X46762Y394276D01*
G03X47373Y394330I283J283D01*
G02X49162Y395590I2627J-1830D01*
G01X49213Y395604D01*
X52026Y398417D01*
G03X51830Y399091I-283J283D01*
G02X53541Y404535I622J2795D01*
G03X54093Y404905I152J370D01*
G01Y404990D01*
X64789D01*
Y403490D01*
X68445D01*
G03X69143Y403442I362J170D01*
G02Y400330I2404J-1556D01*
G03X68407Y400112I-336J-217D01*
G01Y397890D01*
X70104D01*
X78525Y389470D01*
X90013D01*
Y384382D01*
X90794Y383627D01*
X88348Y380917D01*
Y380704D01*
X89348Y379704D01*
Y379695D01*
X89574Y379470D01*
X91013D01*
Y378364D01*
X91408Y378012D01*
X91517Y378047D01*
G02X90822Y372274I983J-3047D01*
G01X90695Y372352D01*
X89038Y370871D01*
X88271Y371530D01*
X75987D01*
Y372636D01*
X75581Y372998D01*
X59550D01*
X57204Y370652D01*
X57195D01*
X56970Y370426D01*
Y368987D01*
X51882D01*
X51127Y368206D01*
X48417Y370652D01*
X42599D01*
X39498Y373753D01*
Y373762D01*
X39376Y373883D01*
X37971Y375152D01*
X37583D01*
X36408Y374092D01*
X35752Y373318D01*
Y367360D01*
X32544Y364153D01*
Y362644D01*
G02X27000Y356954I-5544J-144D01*
G01X26396D01*
Y351452D01*
X26878Y350970D01*
X38013D01*
Y349895D01*
X38182Y349752D01*
X44140D01*
X45787Y348104D01*
X45838Y348090D01*
G02X47752Y343362I-838J-3091D01*
G01Y341140D01*
X58139Y330752D01*
X58277Y330855D01*
G02X85855Y303277I11723J-15855D01*
G01X85752Y303139D01*
X90252Y298640D01*
Y286638D01*
G02X90702Y285045I-2752J-1637D01*
G01X90704Y284848D01*
X91836D01*
X92433Y285348D01*
X103036D01*
Y279666D01*
X103629D01*
X114318Y290355D01*
X114326Y290422D01*
G02X117922Y286826I3174J-422D01*
G01X117855Y286818D01*
X105701Y274664D01*
X103036D01*
Y255348D01*
Y243982D01*
X91158D01*
Y254664D01*
X83744D01*
X79013Y249932D01*
Y245530D01*
X77460D01*
G03X77187Y244838I0J-400D01*
G02X77502Y240502I-2187J-2338D01*
G01Y233359D01*
X84191Y226670D01*
G03X84809Y226736I282J283D01*
G02X90590Y225838I2691J-1736D01*
G01X90604Y225787D01*
X97398Y218993D01*
G03X98081Y219276I283J283D01*
G01Y224990D01*
X102108D01*
Y238192D01*
X108218Y244302D01*
X115233D01*
G03X115485Y245012I0J400D01*
G02X117078Y250674I2015J2488D01*
G01X117145Y250682D01*
X122498Y256036D01*
Y291464D01*
X114645Y299318D01*
X114578Y299326D01*
G02X118174Y302922I422J3174D01*
G01X118182Y302855D01*
X124316Y296722D01*
G03X124998Y297005I282J283D01*
G01Y305502D01*
G02X130002I2502J1998D01*
G01Y285348D01*
X131210D01*
Y292247D01*
X139998Y301036D01*
Y312498D01*
X135613D01*
X127724Y320387D01*
X127584Y320268D01*
G02X119995Y320664I-3584J4232D01*
G01X119994Y320666D01*
X119477Y321182D01*
X107501Y309207D01*
Y306998D01*
G02X102498I-2502J-1998D01*
G01Y311279D01*
X118221Y327002D01*
X118660D01*
X119994Y328334D01*
X119995Y328336D01*
G02X120999Y329164I4006J-3835D01*
G03Y329836I-216J336D01*
G02X120164Y338505I3001J4664D01*
G01X120166Y338506D01*
X121158Y339500D01*
X120166Y340494D01*
X120164Y340495D01*
G02X119995Y340664I3836J4005D01*
G01X119994Y340666D01*
X118660Y341998D01*
X55912D01*
X53896Y344014D01*
Y344022D01*
X53668Y344248D01*
X51696D01*
Y347271D01*
X51471Y347498D01*
X51462D01*
X44998Y353962D01*
Y360502D01*
G02X50002I2502J1998D01*
G01Y356034D01*
X51014Y355022D01*
G03X51696Y355305I282J283D01*
G01Y355752D01*
X61100D01*
Y347002D01*
X63900D01*
Y355752D01*
X66100D01*
Y358169D01*
X65724Y358546D01*
X63700D01*
Y368454D01*
X72820D01*
Y366954D01*
X78800D01*
Y360046D01*
X72820D01*
Y358546D01*
X71104D01*
Y356960D01*
X79078D01*
X80355Y355682D01*
X80422Y355674D01*
G02X76876Y351800I-422J-3174D01*
G01X76841Y351956D01*
X73304D01*
Y347002D01*
X118660D01*
X119994Y348334D01*
X119995Y348336D01*
G02X120164Y348505I4005J-3836D01*
G01X120166Y348506D01*
X121498Y349840D01*
Y362536D01*
X125084Y366121D01*
G03X124823Y366803I-283J283D01*
G02X124578Y373174I177J3197D01*
G01X124645Y373182D01*
X127258Y375796D01*
Y377158D01*
X126291Y378317D01*
X126597Y379069D01*
Y386150D01*
X132923D01*
Y379069D01*
X133229Y378317D01*
X132262Y377158D01*
Y374265D01*
G03X132944Y373982I400J0D01*
G01X134738Y375776D01*
Y377158D01*
X133771Y378317D01*
X134077Y379069D01*
Y386150D01*
X140403D01*
Y379069D01*
X140709Y378317D01*
X139742Y377158D01*
Y375776D01*
X140507Y375011D01*
X140644Y375109D01*
G02X140502Y369998I1856J-2609D01*
G01X138444D01*
X137240Y371202D01*
X126502Y360464D01*
Y349840D01*
X127834Y348506D01*
X127836Y348505D01*
G02X128664Y347500I-3836J-4004D01*
G03X129337I336J216D01*
G02Y341500I4663J-3000D01*
G03X128664I-336J-216D01*
G02X127836Y340495I-4664J2999D01*
G01X127834Y340494D01*
X126842Y339500D01*
X127834Y338506D01*
X127836Y338505D01*
G02X129305Y332883I-3836J-4005D01*
G01X129270Y332768D01*
X131346Y330692D01*
Y328331D01*
G03X131948Y327986I400J0D01*
G02X135322Y320677I2052J-3486D01*
G03X135170Y320016I131J-378D01*
G01X137685Y317502D01*
X142536D01*
X145002Y315036D01*
Y298964D01*
X139917Y293879D01*
G03X140178Y293197I283J-283D01*
G02X143201Y289912I-178J-3197D01*
G03X143601Y289502I400J-10D01*
G01X146987D01*
Y290970D01*
X162013D01*
Y290045D01*
G03X162354Y289904I200J1D01*
G01X162487Y290037D01*
Y291470D01*
X170821D01*
Y289970D01*
X176013D01*
Y285030D01*
X170821D01*
Y283530D01*
X162487D01*
Y283666D01*
G03X161821Y283964I-400J-1D01*
G01X161426Y283611D01*
X160348Y282417D01*
Y279403D01*
X160796Y278954D01*
X162820D01*
Y277454D01*
X168800D01*
Y270546D01*
X162820D01*
Y269046D01*
X157237D01*
X155536Y267344D01*
X151618D01*
X149645Y269318D01*
X149578Y269326D01*
G02X153174Y272922I422J3174D01*
G01X153182Y272855D01*
X153358Y272680D01*
G03X153700Y272821I142J141D01*
G01Y278954D01*
X155344D01*
Y280192D01*
G03X154662Y280475I-400J0D01*
G01X153850Y279664D01*
X145640D01*
G03X145291Y279068I0J-400D01*
G02X145002Y275502I-2791J-1569D01*
G01Y274064D01*
X143669Y272731D01*
G03X143952Y272049I283J-282D01*
G01X144289D01*
X145655Y270682D01*
X145722Y270674D01*
G02X142158Y266884I-422J-3174D01*
G01X142127Y267046D01*
X139885D01*
X139650Y266810D01*
Y264666D01*
X141371D01*
X152502Y253536D01*
Y250427D01*
G03X153135Y250102I400J0D01*
G02X154578Y250674I1866J-2602D01*
G01X154645Y250682D01*
X165724Y261762D01*
G03X165670Y262373I-283J283D01*
G02X167078Y268174I1830J2627D01*
G01X167145Y268182D01*
X176818Y277855D01*
X176826Y277922D01*
G02X181865Y280102I3174J-422D01*
G03X182498Y280427I233J325D01*
G01Y324036D01*
X190956Y332493D01*
G37*
G54D39*
X47728Y412437D03*
X76272D03*
G54D37*
X16000Y107500D03*
X134000Y334500D03*
X166000Y344500D03*
G54D43*
X196205Y404000D03*
Y375000D03*
G54D40*
X106500Y370795D03*
G54D36*
X15000Y15000D03*
Y414000D03*
X217200Y15000D03*
Y414000D03*
G54D38*
X26693Y315000D03*
G54D42*
X149587Y91240D03*
G54D41*
X133500Y390587D03*
%LPD*%
G75*
G36*
G01X19044Y91044D02*
X16000Y91043D01*
X15912Y87412D01*
X19543Y87500D01*
X19544Y90544D01*
G03X19044Y91044I-500J0D01*
G37*
G36*
G01Y161044D02*
X16000Y161043D01*
X15912Y157412D01*
X19543Y157500D01*
X19544Y160544D01*
G03X19044Y161044I-500J0D01*
G37*
G36*
G01Y141044D02*
X16000Y141043D01*
X15912Y137412D01*
X19543Y137500D01*
X19544Y140544D01*
G03X19044Y141044I-500J0D01*
G37*
G36*
G01Y151044D02*
X16000Y151043D01*
X15912Y147412D01*
X19543Y147500D01*
X19544Y150544D01*
G03X19044Y151044I-500J0D01*
G37*
G36*
G01X19544Y184456D02*
X19543Y187500D01*
X15912Y187588D01*
X16000Y183957D01*
X19044Y183956D01*
G03X19544Y184456I0J500D01*
G37*
G36*
G01X20658Y177854D02*
X18505Y180005D01*
X15875Y177500D01*
X18505Y174995D01*
X20658Y177146D01*
G03Y177854I-354J354D01*
G37*
G36*
G01Y167854D02*
X18505Y170005D01*
X15875Y167500D01*
X18505Y164995D01*
X20658Y167146D01*
G03Y167854I-354J354D01*
G37*
G36*
G01X37571Y189466D02*
X21545Y205492D01*
Y207398D01*
G03Y207605I-5545J103D01*
G01X21544Y207607D01*
Y207935D01*
G02X21886Y208077I200J1D01*
G01X39791Y190172D01*
X91151D01*
X91424Y189931D01*
X92205Y190081D01*
X96807D01*
G02X96943Y189734I0J-200D01*
G01X96654Y189466D01*
X37571D01*
G37*
G36*
G01X19544Y214456D02*
X19543Y217500D01*
X15912Y217588D01*
X16000Y213957D01*
X19044Y213956D01*
G03X19544Y214456I0J500D01*
G37*
G36*
G01Y204456D02*
X19543Y207500D01*
X15912Y207588D01*
X16000Y203957D01*
X19044Y203956D01*
G03X19544Y204456I0J500D01*
G37*
G36*
G01Y194456D02*
X19543Y197500D01*
X15912Y197588D01*
X16000Y193957D01*
X19044Y193956D01*
G03X19544Y194456I0J500D01*
G37*
G36*
G01Y234456D02*
X19543Y237500D01*
X15912Y237588D01*
X16000Y233957D01*
X19044Y233956D01*
G03X19544Y234456I0J500D01*
G37*
G36*
G01Y224456D02*
X19543Y227500D01*
X15912Y227588D01*
X16000Y223957D01*
X19044Y223956D01*
G03X19544Y224456I0J500D01*
G37*
G36*
G01X12456Y250544D02*
X12457Y247500D01*
X16088Y247412D01*
X16000Y251043D01*
X12956Y251044D01*
G03X12456Y250544I0J-500D01*
G37*
G36*
G01X12457Y270544D02*
X12458Y267500D01*
X16088Y267412D01*
X16000Y271043D01*
X12957Y271044D01*
G03X12457Y270544I0J-500D01*
G37*
G36*
G01X19544Y254456D02*
X19543Y257500D01*
X15912Y257588D01*
X16000Y253957D01*
X19044Y253956D01*
G03X19544Y254456I0J500D01*
G37*
G36*
G01X29986Y343253D02*
X29320Y348968D01*
X27063Y347164D01*
X24988Y345032D01*
X28948Y342572D01*
G03X29986Y343253I288J692D01*
G37*
G36*
G01X24207Y358956D02*
X27000Y358957D01*
X27133Y362633D01*
X23458Y362500D01*
X23457Y359706D01*
G03X24207Y358956I750J0D01*
G37*
G36*
G01X8866Y377734D02*
X10490Y376093D01*
X12779Y378000D01*
X10490Y379907D01*
X8866Y378266D01*
G03Y377734I423J-266D01*
G37*
G36*
G01X19080Y381591D02*
X17439Y379967D01*
X19346Y377875D01*
X21253Y379967D01*
X19612Y381591D01*
G03X19080I-266J-423D01*
G37*
G36*
G01X23656Y382146D02*
X24152Y381652D01*
X25125Y382500D01*
X24152Y383348D01*
X23656Y382854D01*
G03Y382146I354J-354D01*
G37*
G36*
G01X23380Y397299D02*
X21512Y398968D01*
X19221Y397000D01*
X21512Y395032D01*
X23380Y396701D01*
G03Y397299I-401J299D01*
G37*
G36*
G01X46349Y80029D02*
X44488Y77968D01*
X46654Y75875D01*
X48820Y77968D01*
X46959Y80029D01*
G03X46349I-305J-396D01*
G37*
G36*
G01X57380Y76299D02*
X55512Y77968D01*
X53221Y76000D01*
X55512Y74032D01*
X57380Y75701D01*
G03Y76299I-401J299D01*
G37*
G36*
G01X50898Y124552D02*
X53701Y122047D01*
X56448Y125000D01*
X53701Y127953D01*
X50898Y125448D01*
G03Y124552I601J-448D01*
G37*
G36*
G01X48700Y116800D02*
Y117500D01*
X47412Y117588D01*
X47500Y116300D01*
X48200D01*
G03X48700Y116800I0J500D01*
G37*
G36*
G01Y106800D02*
Y107500D01*
X47412Y107588D01*
X47500Y106300D01*
X48200D01*
G03X48700Y106800I0J500D01*
G37*
G36*
G01X46693Y134126D02*
X48819Y136547D01*
X46260Y139688D01*
X43701Y136547D01*
X45827Y134126D01*
G03X46693I433J613D01*
G37*
G36*
G01X35354Y138656D02*
X35848Y139152D01*
X35000Y140125D01*
X34152Y139152D01*
X34646Y138656D01*
G03X35354I354J354D01*
G37*
G36*
G01X35700Y158700D02*
X35000D01*
X34912Y157412D01*
X36200Y157500D01*
Y158200D01*
G03X35700Y158700I-500J0D01*
G37*
G36*
G01X42364Y159181D02*
X45201Y156547D01*
X47885Y159500D01*
X45201Y162453D01*
X42364Y159819D01*
G03Y159181I385J-319D01*
G37*
G36*
G01X33200Y163700D02*
X32500D01*
X32412Y162412D01*
X33700Y162500D01*
Y163200D01*
G03X33200Y163700I-500J0D01*
G37*
G36*
G01X44120Y175063D02*
X45988Y173394D01*
X48279Y175362D01*
X45988Y177330D01*
X44120Y175661D01*
G03Y175063I401J-299D01*
G37*
G36*
G01X36706Y175716D02*
X36210Y176210D01*
X35237Y175362D01*
X36210Y174514D01*
X36706Y175008D01*
G03Y175716I-354J354D01*
G37*
G36*
G01X36562Y208938D02*
Y209638D01*
X35274Y209726D01*
X35362Y208438D01*
X36062D01*
G03X36562Y208938I0J500D01*
G37*
G36*
G01X51156Y199646D02*
X51652Y199152D01*
X52625Y200000D01*
X51652Y200848D01*
X51156Y200354D01*
G03Y199646I354J-354D01*
G37*
G36*
G01X44300Y228800D02*
X45000D01*
X45088Y230088D01*
X43800Y230000D01*
Y229300D01*
G03X44300Y228800I500J0D01*
G37*
G36*
G01X46344Y237854D02*
X45848Y238348D01*
X44875Y237500D01*
X45848Y236652D01*
X46344Y237146D01*
G03Y237854I-354J354D01*
G37*
G36*
G01X51866Y235234D02*
X53490Y233593D01*
X55779Y235500D01*
X53490Y237407D01*
X51866Y235766D01*
G03Y235234I423J-266D01*
G37*
G36*
G01X58847Y226541D02*
X54541Y230847D01*
G02X54824Y231530I283J283D01*
G01X59821D01*
Y233030D01*
X65013D01*
Y235484D01*
G02X65696Y235767I400J0D01*
G01X67498Y233964D01*
Y223315D01*
X67776Y223037D01*
X67585Y222846D01*
X67514Y222838D01*
G03X66534Y222574I332J-3184D01*
G02X65970Y222939I-164J365D01*
G01Y223821D01*
X64470D01*
Y229013D01*
X59530D01*
Y226824D01*
G02X58847Y226541I-400J0D01*
G37*
G36*
G01X41308Y260154D02*
X62810Y238653D01*
G02X62527Y237970I-283J-283D01*
G01X59821D01*
Y239470D01*
X51857D01*
X51325Y240002D01*
X46998D01*
G03X41804Y237690I-1998J-2502D01*
G01X41793Y237502D01*
X39536D01*
X37315Y239722D01*
G02X37310Y240282I283J283D01*
G03X37751Y244138I-2310J2217D01*
G01Y255862D01*
G03X37497Y259504I-2751J1638D01*
G02X37809Y260154I312J250D01*
G01X41308D01*
G37*
G36*
G01X49664Y220204D02*
X48968Y224512D01*
X46912Y222434D01*
X45032Y220180D01*
X49165Y219681D01*
G03X49664Y220204I0J500D01*
G37*
G36*
G01X43656Y274646D02*
X44152Y274152D01*
X45125Y275000D01*
X44152Y275848D01*
X43656Y275354D01*
G03Y274646I354J-354D01*
G37*
G36*
G01X30700Y271200D02*
X30000D01*
X29912Y269912D01*
X31200Y270000D01*
Y270700D01*
G03X30700Y271200I-500J0D01*
G37*
G36*
G01X30354Y258656D02*
X30848Y259152D01*
X30000Y260125D01*
X29152Y259152D01*
X29646Y258656D01*
G03X30354I354J354D01*
G37*
G36*
G01X29646Y251344D02*
X29152Y250848D01*
X30000Y249875D01*
X30848Y250848D01*
X30354Y251344D01*
G03X29646I-354J-354D01*
G37*
G36*
G01X37867Y347394D02*
X36012Y348968D01*
X33658Y347000D01*
X36012Y345032D01*
X37867Y346606D01*
G03Y347394I-638J394D01*
G37*
G36*
G01X47854Y361156D02*
X48348Y361652D01*
X47500Y362625D01*
X46652Y361652D01*
X47146Y361156D01*
G03X47854I354J354D01*
G37*
G36*
G01X56664Y344627D02*
X58306Y346250D01*
X56398Y350125D01*
X54490Y346250D01*
X56132Y344627D01*
G03X56664I266J423D01*
G37*
G36*
G01X52075Y349734D02*
X53699Y348093D01*
X56523Y350000D01*
X53699Y351907D01*
X52075Y350266D01*
G03Y349734I423J-266D01*
G37*
G36*
G01X56591Y373420D02*
X54967Y375061D01*
X52875Y373154D01*
X54967Y371247D01*
X56591Y372888D01*
G03Y373420I-423J266D01*
G37*
G36*
G01X48971Y372849D02*
X51032Y370988D01*
X53125Y373154D01*
X51032Y375320D01*
X48971Y373459D01*
G03Y372849I396J-305D01*
G37*
G36*
G01X42266Y374366D02*
X43907Y375990D01*
X42000Y378279D01*
X40093Y375990D01*
X41734Y374366D01*
G03X42266I266J423D01*
G37*
G36*
G01X37971Y377849D02*
X40032Y375988D01*
X42125Y378154D01*
X40032Y380320D01*
X37971Y378459D01*
G03Y377849I396J-305D01*
G37*
G36*
G01X29793Y366044D02*
X27000Y366043D01*
X26867Y362367D01*
X30542Y362500D01*
X30543Y365294D01*
G03X29793Y366044I-750J0D01*
G37*
G36*
G01X37029Y377959D02*
X34968Y379820D01*
X32875Y377654D01*
X34968Y375488D01*
X37029Y377349D01*
G03Y377959I-396J305D01*
G37*
G36*
G01X33394Y373633D02*
X34968Y375488D01*
X33000Y377842D01*
X31032Y375488D01*
X32606Y373633D01*
G03X33394I394J638D01*
G37*
G36*
G01X52701Y383880D02*
X51032Y382012D01*
X53000Y379721D01*
X54968Y382012D01*
X53299Y383880D01*
G03X52701I-299J-401D01*
G37*
G36*
G01X60366Y76734D02*
X61990Y75093D01*
X64279Y77000D01*
X61990Y78907D01*
X60366Y77266D01*
G03Y76734I423J-266D01*
G37*
G36*
G01X84993Y73576D02*
X83352Y71951D01*
X85260Y68875D01*
X87168Y71951D01*
X85527Y73576D01*
G03X84993I-267J-423D01*
G37*
G36*
G01X56800Y93800D02*
X57500D01*
X57588Y95088D01*
X56300Y95000D01*
Y94300D01*
G03X56800Y93800I500J0D01*
G37*
G36*
G01X74500Y103990D02*
Y103000D01*
X75040Y102381D01*
X75848Y103348D01*
X74854Y104344D01*
X74500Y103990D01*
G37*
G36*
G01X63849Y81029D02*
X61988Y78968D01*
X64154Y76875D01*
X66320Y78968D01*
X64459Y81029D01*
G03X63849I-305J-396D01*
G37*
G36*
G01X63993Y99116D02*
X65448Y100549D01*
X63740Y103625D01*
X62032Y100549D01*
X63487Y99116D01*
G03X63993I253J431D01*
G37*
G36*
G01X63427Y108901D02*
X61181Y106453D01*
X63740Y103375D01*
X66299Y106453D01*
X64053Y108901D01*
G03X63427I-313J-390D01*
G37*
G36*
G01X70593Y80400D02*
X69138Y78967D01*
X70846Y76875D01*
X72554Y78967D01*
X71099Y80400D01*
G03X70593I-253J-431D01*
G37*
G36*
G01X70799Y85120D02*
X72468Y86988D01*
X70500Y89279D01*
X68532Y86988D01*
X70201Y85120D01*
G03X70799I299J401D01*
G37*
G36*
G01X78233Y121120D02*
X76467Y122900D01*
X74375Y120846D01*
X76467Y118792D01*
X78233Y120572D01*
G03Y121120I-418J274D01*
G37*
G36*
G01X78228Y119737D02*
X80297Y117659D01*
X81109Y120024D01*
X80297Y122389D01*
X78228Y120311D01*
G03Y119737I409J-287D01*
G37*
G36*
G01X83200Y111200D02*
X82500D01*
X82412Y109912D01*
X83700Y110000D01*
Y110700D01*
G03X83200Y111200I-500J0D01*
G37*
G36*
G01X83675Y116204D02*
X84232Y116874D01*
X83543Y120149D01*
X82854Y116874D01*
X83411Y116204D01*
G03X83675I132J482D01*
G37*
G36*
G01X63307Y130374D02*
X61181Y127953D01*
X63740Y124812D01*
X66299Y127953D01*
X64173Y130374D01*
G03X63307I-433J-613D01*
G37*
G36*
G01X74799Y110120D02*
X76468Y111988D01*
X74500Y114279D01*
X72532Y111988D01*
X74201Y110120D01*
G03X74799I299J401D01*
G37*
G36*
G01X64053Y110099D02*
X66299Y112547D01*
X63740Y115625D01*
X61181Y112547D01*
X63427Y110099D01*
G03X64053I313J390D01*
G37*
G36*
G01X83656Y132146D02*
X84152Y131652D01*
X85125Y132500D01*
X84152Y133348D01*
X83656Y132854D01*
G03Y132146I354J-354D01*
G37*
G36*
G01X70700Y161200D02*
X70000D01*
X69912Y159912D01*
X71200Y160000D01*
Y160700D01*
G03X70700Y161200I-500J0D01*
G37*
G36*
G01X78620Y161201D02*
X80488Y159532D01*
X82779Y161500D01*
X80488Y163468D01*
X78620Y161799D01*
G03Y161201I401J-299D01*
G37*
G36*
G01X79120Y147701D02*
X80988Y146032D01*
X83279Y148000D01*
X80988Y149968D01*
X79120Y148299D01*
G03Y147701I401J-299D01*
G37*
G36*
G01X74156Y147646D02*
X74652Y147152D01*
X75625Y148000D01*
X74652Y148848D01*
X74156Y148354D01*
G03Y147646I354J-354D01*
G37*
G36*
G01X76844Y148354D02*
X76348Y148848D01*
X75375Y148000D01*
X76348Y147152D01*
X76844Y147646D01*
G03Y148354I-354J354D01*
G37*
G36*
G01X66844D02*
X66348Y148848D01*
X65375Y148000D01*
X66348Y147152D01*
X66844Y147646D01*
G03Y148354I-354J354D01*
G37*
G36*
G01X64300Y161300D02*
X65000D01*
X65088Y162588D01*
X63800Y162500D01*
Y161800D01*
G03X64300Y161300I500J0D01*
G37*
G36*
G01X60636Y159819D02*
X57799Y162453D01*
X55115Y159500D01*
X57799Y156547D01*
X60636Y159181D01*
G03Y159819I-385J319D01*
G37*
G36*
G01X57513Y172502D02*
Y176130D01*
X67834D01*
X70779Y173184D01*
G02X70496Y172502I-283J-282D01*
G01X57513D01*
G37*
G36*
G01X78656Y189646D02*
X79152Y189152D01*
X80125Y190000D01*
X79152Y190848D01*
X78656Y190354D01*
G03Y189646I354J-354D01*
G37*
G36*
G01X66344Y190354D02*
X65848Y190848D01*
X64875Y190000D01*
X65848Y189152D01*
X66344Y189646D01*
G03Y190354I-354J354D01*
G37*
G36*
G01X76844Y182354D02*
X76348Y182848D01*
X75375Y182000D01*
X76348Y181152D01*
X76844Y181646D01*
G03Y182354I-354J354D01*
G37*
G36*
G01X83700Y206800D02*
Y207500D01*
X82412Y207588D01*
X82500Y206300D01*
X83200D01*
G03X83700Y206800I0J500D01*
G37*
G36*
G01X72502Y202964D02*
X74536Y204998D01*
X76464D01*
X81448Y200014D01*
X90010D01*
Y199924D01*
Y199112D01*
X71115D01*
G02X70832Y199794I0J400D01*
G01X72502Y201464D01*
Y202964D01*
G37*
G36*
G01X75354Y203656D02*
X75848Y204152D01*
X75000Y205125D01*
X74152Y204152D01*
X74646Y203656D01*
G03X75354I354J354D01*
G37*
G36*
G01X65885Y211263D02*
X67299Y212677D01*
X66031Y213156D01*
X65031D01*
X63763Y212677D01*
X65177Y211263D01*
G03X65885I354J354D01*
G37*
G36*
G01X65310Y212401D02*
X64546Y211468D01*
X65531Y209375D01*
X66516Y211468D01*
X65752Y212401D01*
G03X65310I-221J-449D01*
G37*
G36*
G01X62299Y215620D02*
X63968Y217488D01*
X62000Y219779D01*
X60032Y217488D01*
X61701Y215620D01*
G03X62299I299J401D01*
G37*
G36*
G01X70471Y219349D02*
X72532Y217488D01*
X74625Y219654D01*
X72532Y221820D01*
X70471Y219959D01*
G03Y219349I396J-305D01*
G37*
G36*
G01X69190Y220008D02*
X68694Y220502D01*
X67721Y219654D01*
X68694Y218806D01*
X69190Y219300D01*
G03Y220008I-354J354D01*
G37*
G36*
G01X65700Y203700D02*
X65000D01*
X64912Y202412D01*
X66200Y202500D01*
Y203200D01*
G03X65700Y203700I-500J0D01*
G37*
G36*
G01X72715Y209799D02*
X70846Y211468D01*
X69737Y209500D01*
X70846Y207532D01*
X72715Y209201D01*
G03Y209799I-401J299D01*
G37*
G36*
G01X67894Y207032D02*
X70846Y207532D01*
X69950Y209588D01*
X68878Y211468D01*
X67409Y207653D01*
G03X67894Y207032I485J-121D01*
G37*
G36*
G01X57146Y211344D02*
X56652Y210848D01*
X57500Y209875D01*
X58348Y210848D01*
X57854Y211344D01*
G03X57146I-354J-354D01*
G37*
G36*
G01X75354Y241156D02*
X75848Y241652D01*
X75000Y242625D01*
X74152Y241652D01*
X74646Y241156D01*
G03X75354I354J354D01*
G37*
G36*
G01X74529Y267651D02*
X72468Y269512D01*
X70375Y267346D01*
X72468Y265180D01*
X74529Y267041D01*
G03Y267651I-396J305D01*
G37*
G36*
G01X70266Y271866D02*
X71907Y273490D01*
X70000Y275779D01*
X68093Y273490D01*
X69734Y271866D01*
G03X70266I266J423D01*
G37*
G36*
G01X74529Y260959D02*
X72468Y262820D01*
X70375Y260654D01*
X72468Y258488D01*
X74529Y260349D01*
G03Y260959I-396J305D01*
G37*
G36*
G01X74029Y282651D02*
X71968Y284512D01*
X69875Y282346D01*
X71968Y280180D01*
X74029Y282041D01*
G03Y282651I-396J305D01*
G37*
G36*
G01X70370Y354812D02*
X68956Y356226D01*
X68477Y354958D01*
Y353958D01*
X68956Y352690D01*
X70370Y354104D01*
G03Y354812I-354J354D01*
G37*
G36*
G01X78800Y353200D02*
Y352500D01*
X80088Y352412D01*
X80000Y353700D01*
X79300D01*
G03X78800Y353200I0J-500D01*
G37*
G36*
G01X68378Y354905D02*
X67187Y353749D01*
X68602Y349875D01*
X70017Y353749D01*
X68826Y354905D01*
G03X68378I-224J-447D01*
G37*
G36*
G01X68513Y359116D02*
X69968Y360549D01*
X68260Y363625D01*
X66552Y360549D01*
X68007Y359116D01*
G03X68513I253J431D01*
G37*
G36*
G01X73844Y380354D02*
X73348Y380848D01*
X72375Y380000D01*
X73348Y379152D01*
X73844Y379646D01*
G03Y380354I-354J354D01*
G37*
G36*
G01X75103Y377268D02*
X73689Y375854D01*
X74957Y375375D01*
X75957D01*
X77225Y375854D01*
X75811Y377268D01*
G03X75103I-354J-354D01*
G37*
G36*
G01X76120Y375201D02*
X77988Y373532D01*
X80279Y375500D01*
X77988Y377468D01*
X76120Y375799D01*
G03Y375201I401J-299D01*
G37*
G36*
G01X58849Y393529D02*
X56988Y391468D01*
X59154Y389375D01*
X61320Y391468D01*
X59459Y393529D01*
G03X58849I-305J-396D01*
G37*
G36*
G01X63800Y380700D02*
Y380000D01*
X65088Y379912D01*
X65000Y381200D01*
X64300D01*
G03X63800Y380700I0J-500D01*
G37*
G36*
G01X67525Y400130D02*
X65345Y402318D01*
X64434Y399839D01*
X65345Y397360D01*
X67525Y399548D01*
G03Y400130I-407J291D01*
G37*
G36*
G01X59612Y395933D02*
X60228Y396690D01*
X59441Y399964D01*
X58654Y396690D01*
X59270Y395933D01*
G03X59612I171J470D01*
G37*
G36*
G01X62171D02*
X62788Y396690D01*
X62000Y399964D01*
X61212Y396690D01*
X61829Y395933D01*
G03X62171I171J470D01*
G37*
G36*
G01X111620Y64201D02*
X113488Y62532D01*
X115779Y64500D01*
X113488Y66468D01*
X111620Y64799D01*
G03Y64201I401J-299D01*
G37*
G36*
G01X110354Y66156D02*
X110848Y66652D01*
X110000Y67625D01*
X109152Y66652D01*
X109646Y66156D01*
G03X110354I354J354D01*
G37*
G36*
G01X98656Y74646D02*
X99152Y74152D01*
X100125Y75000D01*
X99152Y75848D01*
X98656Y75354D01*
G03Y74646I354J-354D01*
G37*
G36*
G01X91300Y90700D02*
Y90000D01*
X92588Y89912D01*
X92500Y91200D01*
X91800D01*
G03X91300Y90700I0J-500D01*
G37*
G36*
G01X91352Y94156D02*
X91909Y94826D01*
X91220Y98101D01*
X90531Y94826D01*
X91088Y94156D01*
G03X91352I132J482D01*
G37*
G36*
G01X106200Y86757D02*
Y87457D01*
X104912Y87545D01*
X105000Y86257D01*
X105700D01*
G03X106200Y86757I0J500D01*
G37*
G36*
G01X86800Y103800D02*
X87500D01*
X87588Y105088D01*
X86300Y105000D01*
Y104300D01*
G03X86800Y103800I500J0D01*
G37*
G36*
G01X85970Y101796D02*
X85413Y101126D01*
X86102Y97851D01*
X86791Y101126D01*
X86234Y101796D01*
G03X85970I-132J-482D01*
G37*
G36*
G01X93648D02*
X93091Y101126D01*
X93780Y97851D01*
X94469Y101126D01*
X93912Y101796D01*
G03X93648I-132J-482D01*
G37*
G36*
G01X100700Y91200D02*
X100000D01*
X99912Y89912D01*
X101200Y90000D01*
Y90700D01*
G03X100700Y91200I-500J0D01*
G37*
G36*
G01X101589Y94156D02*
X102146Y94826D01*
X101457Y98101D01*
X100768Y94826D01*
X101325Y94156D01*
G03X101589I132J482D01*
G37*
G36*
G01X96207Y123844D02*
X95650Y123174D01*
X96339Y119899D01*
X97028Y123174D01*
X96471Y123844D01*
G03X96207I-132J-482D01*
G37*
G36*
G01X94300Y106300D02*
X95000D01*
X95088Y107588D01*
X93800Y107500D01*
Y106800D01*
G03X94300Y106300I500J0D01*
G37*
G36*
G01X93912Y116204D02*
X94469Y116874D01*
X93780Y120149D01*
X93091Y116874D01*
X93648Y116204D01*
G03X93912I132J482D01*
G37*
G36*
G01X91352D02*
X91909Y116874D01*
X91220Y120149D01*
X90531Y116874D01*
X91088Y116204D01*
G03X91352I132J482D01*
G37*
G36*
G01X88793D02*
X89350Y116874D01*
X88661Y120149D01*
X87972Y116874D01*
X88529Y116204D01*
G03X88793I132J482D01*
G37*
G36*
G01X86234D02*
X86791Y116874D01*
X86102Y120149D01*
X85413Y116874D01*
X85970Y116204D01*
G03X86234I132J482D01*
G37*
G36*
G01X103884Y123844D02*
X103327Y123174D01*
X104016Y119899D01*
X104705Y123174D01*
X104148Y123844D01*
G03X103884I-132J-482D01*
G37*
G36*
G01X86344Y132854D02*
X85848Y133348D01*
X84875Y132500D01*
X85848Y131652D01*
X86344Y132146D01*
G03Y132854I-354J354D01*
G37*
G36*
G01X98766Y123844D02*
X98209Y123174D01*
X98898Y119899D01*
X99587Y123174D01*
X99030Y123844D01*
G03X98766I-132J-482D01*
G37*
G36*
G01X106344Y155354D02*
X105848Y155848D01*
X104875Y155000D01*
X105848Y154152D01*
X106344Y154646D01*
G03Y155354I-354J354D01*
G37*
G36*
G01X102725Y169187D02*
X104316Y170778D01*
G02X104998Y170495I282J-283D01*
G01Y166082D01*
X98218Y159302D01*
X92013D01*
Y163898D01*
X97536D01*
X98375Y164738D01*
X98506Y164669D01*
G03X102798Y169055I1494J2831D01*
G01X102725Y169187D01*
G37*
G36*
G01X93377Y161941D02*
X91512Y163468D01*
X89096Y161500D01*
X91512Y159532D01*
X93377Y161059D01*
G03Y161941I-898J441D01*
G37*
G36*
G01X98156Y147646D02*
X98652Y147152D01*
X99625Y148000D01*
X98652Y148848D01*
X98156Y148354D01*
G03Y147646I354J-354D01*
G37*
G36*
G01X98656Y167146D02*
X99152Y166652D01*
X100125Y167500D01*
X99152Y168348D01*
X98656Y167854D01*
G03Y167146I354J-354D01*
G37*
G36*
G01X97245Y186646D02*
X100082Y184012D01*
X100798Y186965D01*
X100082Y189918D01*
X97245Y187284D01*
G03Y186646I385J-319D01*
G37*
G36*
G01X104685Y183428D02*
X105200Y184012D01*
X104610Y187090D01*
X104020Y184012D01*
X104535Y183428D01*
G03X104685I75J494D01*
G37*
G36*
G01X108622D02*
X109138Y184012D01*
X108547Y187090D01*
X107956Y184012D01*
X108472Y183428D01*
G03X108622I75J494D01*
G37*
G36*
G01X85656Y181646D02*
X86152Y181152D01*
X87125Y182000D01*
X86152Y182848D01*
X85656Y182354D01*
G03Y181646I354J-354D01*
G37*
G36*
G01X112559Y183428D02*
X113074Y184012D01*
X112484Y187090D01*
X111894Y184012D01*
X112409Y183428D01*
G03X112559I75J494D01*
G37*
G36*
G01X112409Y190502D02*
X111894Y189918D01*
X112484Y186840D01*
X113074Y189918D01*
X112559Y190502D01*
G03X112409I-75J-494D01*
G37*
G36*
G01X91428Y204409D02*
X92012Y203894D01*
X95090Y204484D01*
X92012Y205074D01*
X91428Y204559D01*
G03Y204409I494J-75D01*
G37*
G36*
G01X105002Y198436D02*
X102357Y201080D01*
X99920D01*
Y202133D01*
G02X100562Y202452I400J0D01*
G03X104805Y207222I1938J2548D01*
G02Y207778I287J278D01*
G03X103323Y213094I-2305J2222D01*
G01X103174Y213133D01*
Y215080D01*
X103986D01*
X107133D01*
G02X107452Y214438I0J-400D01*
G03X113094Y211677I2548J-1938D01*
G01X113133Y211826D01*
X119822D01*
G02X120105Y211143I0J-400D01*
G01X119645Y210682D01*
X119578Y210674D01*
G03X116875Y208195I422J-3174D01*
G02X116319Y207917I-391J86D01*
G03X114578Y201826I-1319J-2917D01*
G01X114645Y201818D01*
X115084Y201379D01*
G02X114823Y200697I-283J-283D01*
G03X111826Y197922I177J-3197D01*
G01X111818Y197855D01*
X109982Y196020D01*
Y191920D01*
X104906D01*
G02X104639Y192618I0J400D01*
G03X105002Y196998I-2139J2382D01*
G01Y198436D01*
G37*
G36*
G01X91428Y200472D02*
X92012Y199956D01*
X95090Y200547D01*
X92012Y201138D01*
X91428Y200622D01*
G03Y200472I494J-75D01*
G37*
G36*
G01Y196535D02*
X92012Y196020D01*
X95090Y196610D01*
X92012Y197200D01*
X91428Y196685D01*
G03Y196535I494J-75D01*
G37*
G36*
G01Y192598D02*
X92012Y192082D01*
X95090Y192673D01*
X92012Y193264D01*
X91428Y192748D01*
G03Y192598I494J-75D01*
G37*
G36*
G01Y208346D02*
X92012Y207830D01*
X95090Y208421D01*
X92012Y209012D01*
X91428Y208496D01*
G03Y208346I494J-75D01*
G37*
G36*
G01X100748Y216498D02*
X101264Y217082D01*
X100673Y220160D01*
X100082Y217082D01*
X100598Y216498D01*
G03X100748I75J494D01*
G37*
G36*
G01X101300Y210700D02*
Y210000D01*
X102588Y209912D01*
X102500Y211200D01*
X101800D01*
G03X101300Y210700I0J-500D01*
G37*
G36*
G01X110700Y213700D02*
X110000D01*
X109912Y212412D01*
X111200Y212500D01*
Y213200D01*
G03X110700Y213700I-500J0D01*
G37*
G36*
G01X102146Y196344D02*
X101652Y195848D01*
X102500Y194875D01*
X103348Y195848D01*
X102854Y196344D01*
G03X102146I-354J-354D01*
G37*
G36*
G01X98502Y198654D02*
X97918Y199170D01*
X94840Y198579D01*
X97918Y197988D01*
X98502Y198504D01*
G03Y198654I-494J75D01*
G37*
G36*
G01X101300Y205700D02*
Y205000D01*
X102588Y204912D01*
X102500Y206200D01*
X101800D01*
G03X101300Y205700I0J-500D01*
G37*
G36*
G01X109300Y233800D02*
X110000D01*
X110088Y235088D01*
X108800Y235000D01*
Y234300D01*
G03X109300Y233800I500J0D01*
G37*
G36*
G01X93700Y239300D02*
Y240000D01*
X92412Y240088D01*
X92500Y238800D01*
X93200D01*
G03X93700Y239300I0J500D01*
G37*
G36*
G01X110441Y223572D02*
X109926Y222988D01*
X110516Y219910D01*
X111106Y222988D01*
X110591Y223572D01*
G03X110441I-75J-494D01*
G37*
G36*
G01X104535D02*
X104020Y222988D01*
X104610Y219910D01*
X105200Y222988D01*
X104685Y223572D01*
G03X104535I-75J-494D01*
G37*
G36*
G01X92047Y256916D02*
X93160Y255984D01*
X97222Y257165D01*
X93160Y258346D01*
X92047Y257414D01*
G03Y256916I433J-249D01*
G37*
G36*
G01Y266916D02*
X93160Y265984D01*
X97222Y267165D01*
X93160Y268346D01*
X92047Y267414D01*
G03Y266916I433J-249D01*
G37*
G36*
G01Y271916D02*
X93160Y270984D01*
X97222Y272165D01*
X93160Y273346D01*
X92047Y272414D01*
G03Y271916I433J-249D01*
G37*
G36*
G01X102147Y277414D02*
X101034Y278346D01*
X96972Y277165D01*
X101034Y275984D01*
X102147Y276916D01*
G03Y277414I-433J249D01*
G37*
G36*
G01X92047Y261916D02*
X93160Y260984D01*
X97222Y262165D01*
X93160Y263346D01*
X92047Y262414D01*
G03Y261916I433J-249D01*
G37*
G36*
G01Y281916D02*
X93160Y280984D01*
X97222Y282165D01*
X93160Y283346D01*
X92047Y282414D01*
G03Y281916I433J-249D01*
G37*
G36*
G01X104646Y306344D02*
X104152Y305848D01*
X105000Y304875D01*
X105848Y305848D01*
X105354Y306344D01*
G03X104646I-354J-354D01*
G37*
G36*
G01X86580Y379091D02*
X84939Y377467D01*
X86846Y375375D01*
X88753Y377467D01*
X87112Y379091D01*
G03X86580I-266J-423D01*
G37*
G36*
G01X90880Y375799D02*
X89012Y377468D01*
X86721Y375500D01*
X89012Y373532D01*
X90880Y375201D01*
G03Y375799I-401J299D01*
G37*
G36*
G01X86151Y381471D02*
X88012Y383532D01*
X85846Y385625D01*
X83680Y383532D01*
X85541Y381471D01*
G03X86151I305J396D01*
G37*
G36*
G01X90656Y375146D02*
X91652Y374152D01*
X92619Y374960D01*
X92000Y375500D01*
X91010D01*
X90656Y375146D01*
G37*
G36*
G01X93700Y396800D02*
Y397500D01*
X92412Y397588D01*
X92500Y396300D01*
X93200D01*
G03X93700Y396800I0J500D01*
G37*
G36*
G01X123232Y69646D02*
X124646Y68232D01*
X125125Y69500D01*
Y70500D01*
X124646Y71768D01*
X123232Y70354D01*
G03Y69646I354J-354D01*
G37*
G36*
G01X124488Y67164D02*
X120180Y66468D01*
X122258Y64412D01*
X124512Y62532D01*
X125011Y66665D01*
G03X124488Y67164I-500J0D01*
G37*
G36*
G01X125011Y74835D02*
X124512Y78968D01*
X122258Y77088D01*
X120180Y75032D01*
X124488Y74336D01*
G03X125011Y74835I23J499D01*
G37*
G36*
G01X140853Y83747D02*
X143149Y86338D01*
X140413Y87688D01*
X137677Y86338D01*
X139973Y83747D01*
G03X140853I440J607D01*
G37*
G36*
G01X122041Y81029D02*
X120180Y78968D01*
X122346Y76875D01*
X124512Y78968D01*
X122651Y81029D01*
G03X122041I-305J-396D01*
G37*
G36*
G01X122651Y87493D02*
X124512Y89554D01*
X122346Y91647D01*
X120180Y89554D01*
X122041Y87493D01*
G03X122651I305J396D01*
G37*
G36*
G01X124470Y107497D02*
X122349Y105376D01*
X124250Y104658D01*
X125750D01*
X127651Y105376D01*
X125530Y107497D01*
G03X124470I-530J-530D01*
G37*
G36*
G01X128989Y104436D02*
X131032Y102680D01*
X133188Y104846D01*
X131032Y107012D01*
X128989Y105256D01*
G03Y104436I628J-410D01*
G37*
G36*
G01X115420Y160409D02*
X117061Y162033D01*
X115154Y164125D01*
X113247Y162033D01*
X114888Y160409D01*
G03X115420I266J423D01*
G37*
G36*
G01X125880Y164299D02*
X124012Y165968D01*
X121721Y164000D01*
X124012Y162032D01*
X125880Y163701D01*
G03Y164299I-401J299D01*
G37*
G36*
G01X121300Y180700D02*
Y180000D01*
X122588Y179912D01*
X122500Y181200D01*
X121800D01*
G03X121300Y180700I0J-500D01*
G37*
G36*
G01X115700Y173700D02*
X115000D01*
X114912Y172412D01*
X116200Y172500D01*
Y173200D01*
G03X115700Y173700I-500J0D01*
G37*
G36*
G01X118465Y183428D02*
X118980Y184012D01*
X118390Y187090D01*
X117800Y184012D01*
X118315Y183428D01*
G03X118465I75J494D01*
G37*
G36*
G01X131156Y174646D02*
X131652Y174152D01*
X132625Y175000D01*
X131652Y175848D01*
X131156Y175354D01*
G03Y174646I354J-354D01*
G37*
G36*
G01X125755Y187284D02*
X122918Y189918D01*
X122202Y186965D01*
X122918Y184012D01*
X125755Y186646D01*
G03Y187284I-385J319D01*
G37*
G36*
G01X122252Y190502D02*
X121736Y189918D01*
X122327Y186840D01*
X122918Y189918D01*
X122402Y190502D01*
G03X122252I-75J-494D01*
G37*
G36*
G01X121800Y171300D02*
X122500D01*
X122588Y172588D01*
X121300Y172500D01*
Y171800D01*
G03X121800Y171300I500J0D01*
G37*
G36*
G01X120700Y208700D02*
X120000D01*
X119912Y207412D01*
X121200Y207500D01*
Y208200D01*
G03X120700Y208700I-500J0D01*
G37*
G36*
G01X131572Y208496D02*
X130988Y209012D01*
X127910Y208421D01*
X130988Y207830D01*
X131572Y208346D01*
G03Y208496I-494J75D01*
G37*
G36*
G01Y202591D02*
X130988Y203106D01*
X127910Y202516D01*
X130988Y201926D01*
X131572Y202441D01*
G03Y202591I-494J75D01*
G37*
G36*
G01Y194717D02*
X130988Y195232D01*
X127910Y194642D01*
X130988Y194052D01*
X131572Y194567D01*
G03Y194717I-494J75D01*
G37*
G36*
G01Y198654D02*
X130988Y199170D01*
X127910Y198579D01*
X130988Y197988D01*
X131572Y198504D01*
G03Y198654I-494J75D01*
G37*
G36*
G01X116200Y204300D02*
Y205000D01*
X114912Y205088D01*
X115000Y203800D01*
X115700D01*
G03X116200Y204300I0J500D01*
G37*
G36*
G01X124498Y214252D02*
X125082Y213736D01*
X128160Y214327D01*
X125082Y214918D01*
X124498Y214402D01*
G03Y214252I494J-75D01*
G37*
G36*
G01X131572Y214402D02*
X130988Y214918D01*
X127910Y214327D01*
X130988Y213736D01*
X131572Y214252D01*
G03Y214402I-494J75D01*
G37*
G36*
G01X137983Y213973D02*
X138479Y213479D01*
X139452Y214327D01*
X138479Y215175D01*
X137983Y214681D01*
G03Y213973I354J-354D01*
G37*
G36*
G01X125755Y220354D02*
X122918Y222988D01*
X122202Y220035D01*
X122918Y217082D01*
X125755Y219716D01*
G03Y220354I-385J319D01*
G37*
G36*
G01X114300Y196300D02*
X115000D01*
X115088Y197588D01*
X113800Y197500D01*
Y196800D01*
G03X114300Y196300I500J0D01*
G37*
G36*
G01X118200Y248700D02*
X117500D01*
X117412Y247412D01*
X118700Y247500D01*
Y248200D01*
G03X118200Y248700I-500J0D01*
G37*
G36*
G01X123200D02*
X122500D01*
X122412Y247412D01*
X123700Y247500D01*
Y248200D01*
G03X123200Y248700I-500J0D01*
G37*
G36*
G01X116346Y223572D02*
X115830Y222988D01*
X116421Y219910D01*
X117012Y222988D01*
X116496Y223572D01*
G03X116346I-75J-494D01*
G37*
G36*
G01X120283D02*
X119768Y222988D01*
X120358Y219910D01*
X120948Y222988D01*
X120433Y223572D01*
G03X120283I-75J-494D01*
G37*
G36*
G01X138761Y257414D02*
X137648Y258346D01*
X133586Y257165D01*
X137648Y255984D01*
X138761Y256916D01*
G03Y257414I-433J249D01*
G37*
G36*
G01Y262414D02*
X137648Y263346D01*
X133586Y262165D01*
X137648Y260984D01*
X138761Y261916D01*
G03Y262414I-433J249D01*
G37*
G36*
G01Y272414D02*
X137648Y273346D01*
X133586Y272165D01*
X137648Y270984D01*
X138761Y271916D01*
G03Y272414I-433J249D01*
G37*
G36*
G01X116200Y301800D02*
Y302500D01*
X114912Y302588D01*
X115000Y301300D01*
X115700D01*
G03X116200Y301800I0J500D01*
G37*
G36*
G01X138761Y282414D02*
X137648Y283346D01*
X133586Y282165D01*
X137648Y280984D01*
X138761Y281916D01*
G03Y282414I-433J249D01*
G37*
G36*
G01X116800Y288800D02*
X117500D01*
X117588Y290088D01*
X116300Y290000D01*
Y289300D01*
G03X116800Y288800I500J0D01*
G37*
G36*
G01X127854Y306156D02*
X128348Y306652D01*
X127500Y307625D01*
X126652Y306652D01*
X127146Y306156D01*
G03X127854I354J354D01*
G37*
G36*
G01X119342Y324146D02*
X121495Y321995D01*
X124125Y324500D01*
X121495Y327005D01*
X119342Y324854D01*
G03Y324146I354J-354D01*
G37*
G36*
G01Y344146D02*
X121495Y341995D01*
X124125Y344500D01*
X121495Y347005D01*
X119342Y344854D01*
G03Y344146I354J-354D01*
G37*
G36*
G01X123646Y349158D02*
X121495Y347005D01*
X124000Y344375D01*
X126505Y347005D01*
X124354Y349158D01*
G03X123646I-354J-354D01*
G37*
G36*
G01X124354Y339842D02*
X126505Y341995D01*
X124000Y344625D01*
X121495Y341995D01*
X123646Y339842D01*
G03X124354I354J354D01*
G37*
G36*
G01X123646Y339158D02*
X121495Y337005D01*
X124000Y334375D01*
X126505Y337005D01*
X124354Y339158D01*
G03X123646I-354J-354D01*
G37*
G36*
G01X130007Y377581D02*
X130922Y378677D01*
X129760Y381538D01*
X128598Y378677D01*
X129513Y377581D01*
G03X130007I247J435D01*
G37*
G36*
G01X125700Y371200D02*
X125000D01*
X124912Y369912D01*
X126200Y370000D01*
Y370700D01*
G03X125700Y371200I-500J0D01*
G37*
G36*
G01X136240Y373240D02*
X138240D01*
X137240Y374740D01*
X136240Y373740D01*
Y373240D01*
G37*
G36*
G01X137487Y377581D02*
X138402Y378677D01*
X137240Y381538D01*
X136078Y378677D01*
X136993Y377581D01*
G03X137487I247J435D01*
G37*
G36*
G01X121156Y404646D02*
X121652Y404152D01*
X122625Y405000D01*
X121652Y405848D01*
X121156Y405354D01*
G03Y404646I354J-354D01*
G37*
G36*
G01X153441Y84010D02*
X152323Y84922D01*
X149400Y83760D01*
X152323Y82598D01*
X153441Y83510D01*
G03Y84010I-707J250D01*
G37*
G36*
G01X147672Y100328D02*
Y101028D01*
X146384Y101116D01*
X146472Y99828D01*
X147172D01*
G03X147672Y100328I0J500D01*
G37*
G36*
G01X148120Y163701D02*
X149988Y162032D01*
X152279Y164000D01*
X149988Y165968D01*
X148120Y164299D01*
G03Y163701I401J-299D01*
G37*
G36*
G01X152459Y159971D02*
X154320Y162032D01*
X152154Y164125D01*
X149988Y162032D01*
X151849Y159971D01*
G03X152459I305J396D01*
G37*
G36*
G01X168971Y188349D02*
X171032Y186488D01*
X173125Y188654D01*
X171032Y190820D01*
X168971Y188959D01*
G03Y188349I396J-305D01*
G37*
G36*
G01X151800Y216300D02*
X152500D01*
X152588Y217588D01*
X151300Y217500D01*
Y216800D01*
G03X151800Y216300I500J0D01*
G37*
G36*
G01X161344Y207854D02*
X160848Y208348D01*
X159875Y207500D01*
X160848Y206652D01*
X161344Y207146D01*
G03Y207854I-354J354D01*
G37*
G36*
G01X168971Y195041D02*
X171032Y193180D01*
X173125Y195346D01*
X171032Y197512D01*
X168971Y195651D01*
G03Y195041I396J-305D01*
G37*
G36*
G01X166200Y196800D02*
Y197500D01*
X164912Y197588D01*
X165000Y196300D01*
X165700D01*
G03X166200Y196800I0J500D01*
G37*
G36*
G01X144646Y246344D02*
X144152Y245848D01*
X145000Y244875D01*
X145848Y245848D01*
X145354Y246344D01*
G03X144646I-354J-354D01*
G37*
G36*
G01X166156Y244646D02*
X166652Y244152D01*
X167625Y245000D01*
X166652Y245848D01*
X166156Y245354D01*
G03Y244646I354J-354D01*
G37*
G36*
G01X155700Y248700D02*
X155000D01*
X154912Y247412D01*
X156200Y247500D01*
Y248200D01*
G03X155700Y248700I-500J0D01*
G37*
G36*
G01X146121Y219681D02*
X146652Y219152D01*
X147625Y219996D01*
X146678Y220872D01*
X146147Y220413D01*
G03X146121Y219681I328J-378D01*
G37*
G36*
G01X168200Y266200D02*
X167500D01*
X167412Y264912D01*
X168700Y265000D01*
Y265700D01*
G03X168200Y266200I-500J0D01*
G37*
G36*
G01X151200Y271800D02*
Y272500D01*
X149912Y272588D01*
X150000Y271300D01*
X150700D01*
G03X151200Y271800I0J500D01*
G37*
G36*
G01X158007Y278384D02*
X156552Y276951D01*
X158260Y273875D01*
X159968Y276951D01*
X158513Y278384D01*
G03X158007I-253J-431D01*
G37*
G36*
G01X144100Y268200D02*
Y267500D01*
X145388Y267412D01*
X145300Y268700D01*
X144600D01*
G03X144100Y268200I0J-500D01*
G37*
G36*
G01X163057Y287247D02*
X164490Y285792D01*
X166779Y287500D01*
X164490Y289208D01*
X163057Y287753D01*
G03Y287247I431J-253D01*
G37*
G36*
G01X158151Y282971D02*
X160012Y285032D01*
X157846Y287125D01*
X155680Y285032D01*
X157541Y282971D01*
G03X158151I305J396D01*
G37*
G36*
G01X161880Y287299D02*
X160012Y288968D01*
X157721Y287000D01*
X160012Y285032D01*
X161880Y286701D01*
G03Y287299I-401J299D01*
G37*
G36*
G01X142854Y276156D02*
X143348Y276652D01*
X142500Y277625D01*
X141652Y276652D01*
X142146Y276156D01*
G03X142854I354J354D01*
G37*
G36*
G01X163844Y362854D02*
X163348Y363348D01*
X162375Y362500D01*
X163348Y361652D01*
X163844Y362146D01*
G03Y362854I-354J354D01*
G37*
G36*
G01X141156Y372146D02*
X141652Y371652D01*
X142625Y372500D01*
X141652Y373348D01*
X141156Y372854D01*
G03Y372146I354J-354D01*
G37*
G36*
G01X149920Y389409D02*
X151561Y391033D01*
X149654Y393125D01*
X147747Y391033D01*
X149388Y389409D01*
G03X149920I266J423D01*
G37*
G36*
G01X156156Y387146D02*
X156652Y386652D01*
X157625Y387500D01*
X156652Y388348D01*
X156156Y387854D01*
G03Y387146I354J-354D01*
G37*
G36*
G01X161800Y376300D02*
X162500D01*
X162588Y377588D01*
X161300Y377500D01*
Y376800D01*
G03X161800Y376300I500J0D01*
G37*
G36*
G01X160380Y375299D02*
X158512Y376968D01*
X156221Y375000D01*
X158512Y373032D01*
X160380Y374701D01*
G03Y375299I-401J299D01*
G37*
G36*
G01Y393299D02*
X158512Y394968D01*
X156221Y393000D01*
X158512Y391032D01*
X160380Y392701D01*
G03Y393299I-401J299D01*
G37*
G36*
G01X156080Y396591D02*
X154439Y394967D01*
X156346Y392875D01*
X158253Y394967D01*
X156612Y396591D01*
G03X156080I-266J-423D01*
G37*
G36*
G01X143844Y400354D02*
X143348Y400848D01*
X142375Y400000D01*
X143348Y399152D01*
X143844Y399646D01*
G03Y400354I-354J354D01*
G37*
G36*
G01X190633Y43106D02*
X192488Y41532D01*
X194842Y43500D01*
X192488Y45468D01*
X190633Y43894D01*
G03Y43106I638J-394D01*
G37*
G36*
G01X172176Y85791D02*
X174032Y83988D01*
X176188Y86154D01*
X174032Y88320D01*
X172176Y86517D01*
G03Y85791I656J-363D01*
G37*
G36*
G01X175701Y96880D02*
X174032Y95012D01*
X176000Y92721D01*
X177968Y95012D01*
X176299Y96880D01*
G03X175701I-299J-401D01*
G37*
G36*
G01X176354Y97656D02*
X176848Y98152D01*
X176000Y99125D01*
X175152Y98152D01*
X175646Y97656D01*
G03X176354I354J354D01*
G37*
G36*
G01X191300Y110700D02*
Y110000D01*
X192588Y109912D01*
X192500Y111200D01*
X191800D01*
G03X191300Y110700I0J-500D01*
G37*
G36*
G01X186300D02*
Y110000D01*
X187588Y109912D01*
X187500Y111200D01*
X186800D01*
G03X186300Y110700I0J-500D01*
G37*
G36*
G01X181300D02*
Y110000D01*
X182588Y109912D01*
X182500Y111200D01*
X181800D01*
G03X181300Y110700I0J-500D01*
G37*
G36*
G01X176156Y109646D02*
X176652Y109152D01*
X177625Y110000D01*
X176652Y110848D01*
X176156Y110354D01*
G03Y109646I354J-354D01*
G37*
G36*
G01X177029Y188959D02*
X174968Y190820D01*
X172875Y188654D01*
X174968Y186488D01*
X177029Y188349D01*
G03Y188959I-396J305D01*
G37*
G36*
G01X179300Y276300D02*
X180000D01*
X180088Y277588D01*
X178800Y277500D01*
Y276800D01*
G03X179300Y276300I500J0D01*
G37*
G36*
G01X193457Y330956D02*
X196500Y330957D01*
X196588Y334588D01*
X192958Y334500D01*
X192957Y331456D01*
G03X193457Y330956I500J0D01*
G37*
G36*
G01X200936Y47511D02*
X199180Y45468D01*
X201346Y43312D01*
X203512Y45468D01*
X201756Y47511D01*
G03X200936I-410J-628D01*
G37*
G36*
G01X209206Y83956D02*
X212000Y83957D01*
X212133Y87633D01*
X208457Y87500D01*
X208456Y84706D01*
G03X209206Y83956I750J0D01*
G37*
G36*
G01X215044Y101044D02*
X212000Y101043D01*
X211912Y97412D01*
X215543Y97500D01*
X215544Y100544D01*
G03X215044Y101044I-500J0D01*
G37*
G36*
G01X208456Y120544D02*
X208457Y117500D01*
X212088Y117412D01*
X212000Y121043D01*
X208956Y121044D01*
G03X208456Y120544I0J-500D01*
G37*
G36*
G01Y130544D02*
X208457Y127500D01*
X212088Y127412D01*
X212000Y131043D01*
X208956Y131044D01*
G03X208456Y130544I0J-500D01*
G37*
G36*
G01X207342Y157146D02*
X209495Y154995D01*
X212125Y157500D01*
X209495Y160005D01*
X207342Y157854D01*
G03Y157146I354J-354D01*
G37*
G36*
G01Y137146D02*
X209495Y134995D01*
X212125Y137500D01*
X209495Y140005D01*
X207342Y137854D01*
G03Y137146I354J-354D01*
G37*
G36*
G01Y147146D02*
X209495Y144995D01*
X212125Y147500D01*
X209495Y150005D01*
X207342Y147854D01*
G03Y147146I354J-354D01*
G37*
G36*
G01X208456Y190544D02*
X208457Y187500D01*
X212088Y187412D01*
X212000Y191043D01*
X208956Y191044D01*
G03X208456Y190544I0J-500D01*
G37*
G36*
G01Y180544D02*
X208457Y177500D01*
X212088Y177412D01*
X212000Y181043D01*
X208956Y181044D01*
G03X208456Y180544I0J-500D01*
G37*
G36*
G01X207342Y167146D02*
X209495Y164995D01*
X212125Y167500D01*
X209495Y170005D01*
X207342Y167854D01*
G03Y167146I354J-354D01*
G37*
G36*
G01X208456Y200544D02*
X208457Y197500D01*
X212088Y197412D01*
X212000Y201043D01*
X208956Y201044D01*
G03X208456Y200544I0J-500D01*
G37*
G36*
G01D02*
X208457Y197500D01*
X212088Y197412D01*
X212000Y201043D01*
X208956Y201044D01*
G03X208456Y200544I0J-500D01*
G37*
G36*
G01Y220544D02*
X208457Y217500D01*
X212088Y217412D01*
X212000Y221043D01*
X208956Y221044D01*
G03X208456Y220544I0J-500D01*
G37*
G36*
G01Y210544D02*
X208457Y207500D01*
X212088Y207412D01*
X212000Y211043D01*
X208956Y211044D01*
G03X208456Y210544I0J-500D01*
G37*
G36*
G01X208956Y233956D02*
X212000Y233957D01*
X212088Y237588D01*
X208457Y237500D01*
X208456Y234456D01*
G03X208956Y233956I500J0D01*
G37*
G36*
G01Y243956D02*
X212000Y243957D01*
X212088Y247588D01*
X208457Y247500D01*
X208456Y244456D01*
G03X208956Y243956I500J0D01*
G37*
G36*
G01X207342Y227146D02*
X209495Y224995D01*
X212125Y227500D01*
X209495Y230005D01*
X207342Y227854D01*
G03Y227146I354J-354D01*
G37*
G36*
G01X208956Y253956D02*
X212000Y253957D01*
X212088Y257588D01*
X208457Y257500D01*
X208456Y254456D01*
G03X208956Y253956I500J0D01*
G37*
G36*
G01X208957Y263956D02*
X212000Y263957D01*
X212088Y267588D01*
X208458Y267500D01*
X208457Y264456D01*
G03X208957Y263956I500J0D01*
G37*
G36*
G01Y273956D02*
X212000Y273957D01*
X212088Y277588D01*
X208458Y277500D01*
X208457Y274456D01*
G03X208957Y273956I500J0D01*
G37*
G36*
G01X78356Y199646D02*
X78852Y199152D01*
X79825Y200000D01*
X78852Y200848D01*
X78356Y200354D01*
G03Y199646I354J-354D01*
G37*
G54D10*
X22795Y43500D03*
X47205D03*
X171795Y375000D03*
Y404000D03*
X196205Y375000D03*
Y404000D03*
G54D11*
X16000Y107500D03*
Y97500D03*
Y87500D03*
Y127500D03*
Y117500D03*
Y157500D03*
Y147500D03*
Y137500D03*
Y187500D03*
Y177500D03*
Y167500D03*
Y217500D03*
Y207500D03*
Y197500D03*
Y247500D03*
Y237500D03*
Y227500D03*
Y277500D03*
Y267500D03*
Y257500D03*
X27000Y362500D03*
X17000D03*
X76000Y43000D03*
X86000D03*
X96000D03*
X106000D03*
X134000Y324500D03*
Y334500D03*
X124000Y324500D03*
Y334500D03*
X134000Y344500D03*
X124000D03*
X166000Y334500D03*
Y324500D03*
Y344500D03*
X196500Y324500D03*
Y334500D03*
Y344500D03*
X212000Y107500D03*
Y97500D03*
Y87500D03*
Y127500D03*
Y117500D03*
Y157500D03*
Y147500D03*
Y137500D03*
Y187500D03*
Y177500D03*
Y167500D03*
Y217500D03*
Y207500D03*
Y197500D03*
Y247500D03*
Y237500D03*
Y227500D03*
Y277500D03*
Y267500D03*
Y257500D03*
G54D20*
X52453Y401886D03*
X71547D03*
G54D21*
X83543Y97976D03*
X80984D03*
Y120024D03*
X83543D03*
X104016Y97976D03*
X101457D03*
X98898D03*
X96339D03*
X93780D03*
X91220D03*
X88661D03*
X86102D03*
Y120024D03*
X88661D03*
X91220D03*
X93780D03*
X96339D03*
X98898D03*
X101457D03*
X104016D03*
G54D12*
X26693Y315000D03*
G54D30*
X122008Y142500D03*
X157992D03*
G54D22*
X69862Y209500D03*
X65531D03*
G54D13*
X27154Y347000D03*
X19346Y378000D03*
X12654D03*
X19346Y397000D03*
X12654D03*
X53346Y76000D03*
X46654D03*
X54846Y175362D03*
X48154D03*
X55654Y235500D03*
X33846Y347000D03*
X70846Y77000D03*
X64154D03*
X82654Y161500D03*
X83154Y148000D03*
X62346Y235500D03*
X74846Y249500D03*
X68154D03*
X65846Y389500D03*
X59154D03*
X85846Y385500D03*
X79154D03*
X80154Y375500D03*
X89346Y161500D03*
X89846Y148000D03*
X86846Y375500D03*
X122346Y77000D03*
X115654D03*
X122346Y64500D03*
X115654D03*
X122346Y91522D03*
X115654D03*
X121846Y164000D03*
X115154D03*
X158846D03*
X152154D03*
X166654Y287500D03*
X151154Y287000D03*
X157846D03*
X156346Y375000D03*
X149654D03*
X156346Y393000D03*
X149654D03*
X194654Y43500D03*
X173346Y287500D03*
X201346Y43500D03*
G54D31*
X133500Y390587D03*
X137240Y381413D03*
X129760D03*
G54D32*
G01X16000Y103254D02*
Y107500D01*
G01X35000Y140000D02*
Y106500D01*
X16000Y87500D01*
G01Y107500D02*
Y111746D01*
G01X11754Y107500D02*
X16000D01*
G01D02*
X20246D01*
G01X110516Y186965D02*
Y180562D01*
X105700Y175746D01*
Y175700D01*
X100000Y170000D01*
X75047D01*
X73247Y168200D01*
X26700D01*
X16000Y157500D01*
G01X114453Y186965D02*
Y176953D01*
X110000Y172500D01*
Y165000D01*
X100000Y155000D01*
X67500D01*
X60000Y147500D01*
X26000D01*
X16000Y137500D01*
G01X112484Y186965D02*
Y179984D01*
X107500Y175000D01*
Y165046D01*
X99254Y156800D01*
X66754D01*
X62454Y152500D01*
X21000D01*
X16000Y147500D01*
G01Y197500D02*
X31269Y182231D01*
X70362D01*
X74693Y177900D01*
X95939D01*
X102642Y184603D01*
Y186965D01*
G01X104610D02*
Y182294D01*
X98416Y176100D01*
X73947D01*
X69616Y180431D01*
X23069D01*
X16000Y187500D01*
G01Y177500D02*
X20743D01*
X21874Y178631D01*
X68870D01*
X73201Y174300D01*
X99208D01*
X102100Y177192D01*
Y177238D01*
X106579Y181717D01*
Y186965D01*
G01X108547D02*
Y181139D01*
X103900Y176492D01*
Y176446D01*
X99954Y172500D01*
X75001D01*
X72501Y170000D01*
X23243D01*
X20743Y167500D01*
X16000D01*
G01Y227500D02*
X20844Y222656D01*
Y216656D01*
X42858Y194642D01*
X94965D01*
G01Y192673D02*
X40827D01*
X16000Y217500D01*
G01X100673Y186965D02*
X36535D01*
X16000Y207500D01*
G01X94965Y196610D02*
X63209D01*
X54550Y205269D01*
X48231D01*
X16000Y237500D01*
G01X62000Y219654D02*
Y219851D01*
X46851Y235000D01*
X38500D01*
X16000Y257500D01*
G01Y247500D02*
X8282Y255218D01*
Y258281D01*
X12657Y262656D01*
X42344D01*
X70000Y235000D01*
Y224351D01*
X74500Y219851D01*
Y219654D01*
G01X12654Y378000D02*
X9289D01*
X7500Y376211D01*
Y276000D01*
X16000Y267500D01*
G01X26693Y296581D02*
Y315000D01*
G01X20085D02*
X26693D01*
G01D02*
X33301D01*
G01X25000Y382500D02*
X20678D01*
X19346Y381168D01*
Y378000D01*
G01X12654Y397000D02*
Y399671D01*
G01X9786Y397000D02*
X12654D01*
G01X53000Y379846D02*
Y384500D01*
X40500Y397000D01*
X19346D01*
G01X47205Y43500D02*
Y70056D01*
X53149Y76000D01*
X53346D01*
G01X57500Y95000D02*
X46654Y84154D01*
Y76000D01*
G01X53346D02*
X59789D01*
X60789Y77000D01*
X64154D01*
G01X56260Y103500D02*
X51500D01*
G01D02*
X47500Y107500D01*
G01X56260Y115500D02*
X49500D01*
G01D02*
X47500Y117500D01*
G01X32500Y162500D02*
X36400Y166400D01*
X96500D01*
X97600Y167500D01*
X100000D01*
G01X35000Y157500D02*
X37000Y159500D01*
X47760D01*
G01X65000Y162500D02*
X62000Y159500D01*
X55240D01*
G01X64638Y175362D02*
X54846D01*
G01X48154D02*
X35362D01*
G01X45000Y230000D02*
X41851Y226851D01*
Y221000D01*
X47000Y215851D01*
Y215654D01*
G01D02*
Y215457D01*
X62457Y200000D01*
X67500D01*
X70000Y202500D01*
Y204000D01*
X73500Y207500D01*
X77500D01*
X82484Y202516D01*
X94965D01*
G01X52500Y200000D02*
X45000D01*
X35362Y209638D01*
G01X47000Y222346D02*
X57500Y211846D01*
Y210000D01*
G01X45000Y237500D02*
X50289D01*
X52289Y235500D01*
X55654D01*
G01X45000Y275000D02*
X35000D01*
X30000Y270000D01*
G01Y260000D02*
Y250000D01*
G01X47500Y362500D02*
Y354998D01*
X52498Y350000D01*
X56398D01*
G01X53000Y373154D02*
X43635D01*
X42000Y374789D01*
Y378154D01*
G01X75457Y375500D02*
X58514D01*
X56168Y373154D01*
X53000D01*
G01X42000Y378154D02*
X38153D01*
X37653Y377654D01*
X33000D01*
G01X52453Y401886D02*
Y404950D01*
G01X49389Y401886D02*
X52453D01*
G01X47728Y412437D02*
Y416092D01*
G01X44073Y412437D02*
X47728D01*
G01X64154Y77000D02*
Y99133D01*
X63740Y99547D01*
Y103500D01*
G01X125000Y70000D02*
X112500D01*
X104300Y78200D01*
X78200D01*
X73676Y73676D01*
X67675D01*
X64351Y77000D01*
X64154D01*
G01X70500Y89154D02*
Y80315D01*
X70846Y79969D01*
Y77000D01*
G01X56260Y115500D02*
Y103500D01*
G01X96339Y120024D02*
Y124373D01*
X94550Y126162D01*
X73649D01*
X70500Y123013D01*
Y95846D01*
G01X63740Y103500D02*
Y110000D01*
G01X75000Y102500D02*
X74500Y103000D01*
Y114154D01*
G01X85000Y132500D02*
X72499D01*
X68220Y128221D01*
Y99539D01*
X67231Y98550D01*
Y92620D01*
X70500Y89351D01*
Y89154D01*
G01X80984Y120024D02*
X78637D01*
X77815Y120846D01*
X74500D01*
G01X82500Y110000D02*
X83543Y111043D01*
Y120024D01*
G01X63740Y110000D02*
Y115500D01*
G01X62500Y110000D02*
X63740D01*
G01X70000Y160000D02*
X71500Y161500D01*
X82654D01*
G01X83154Y148000D02*
X75500D01*
G01D02*
X65500D01*
G01X65000Y190000D02*
X80000D01*
G01X65000Y175000D02*
X64638Y175362D01*
G01X75500Y182000D02*
X87000D01*
G01X82500Y207500D02*
X85516Y204484D01*
X94965D01*
G01X75000Y205000D02*
Y202300D01*
G01X94965Y200547D02*
X80247D01*
G01X75000Y202300D02*
X77300Y200000D01*
X79700D01*
G01X80247Y200547D02*
X79700Y200000D01*
G01X94965Y210390D02*
X89656D01*
X87015Y213031D01*
X65531D01*
G01D02*
Y209500D01*
G01Y213031D02*
X62984D01*
X62000Y214015D01*
Y219654D01*
G01X65000Y202500D02*
X67816Y205316D01*
Y207454D01*
X69862Y209500D01*
G01D02*
X79499D01*
X79999Y210000D01*
X87500D01*
X89079Y208421D01*
X94965D01*
G01X75000Y242500D02*
Y232323D01*
X94965Y212358D01*
G01X68154Y246829D02*
Y249500D01*
G01X62346Y235500D02*
Y238171D01*
G01Y235500D02*
X65214D01*
G01X74500Y219654D02*
X67846D01*
G01X68154Y249500D02*
Y252171D01*
G01X97097Y257165D02*
X82708D01*
X75043Y249500D01*
X74846D01*
G01X70500Y267346D02*
X91979D01*
X92160Y267165D01*
X97097D01*
G01Y272165D02*
X70124D01*
X70000Y272289D01*
Y275654D01*
G01X97097Y262165D02*
X77165D01*
X75654Y260654D01*
X70500D01*
G01X70000Y282346D02*
X91979D01*
X92160Y282165D01*
X97097D01*
G01X75740Y359845D02*
Y363500D01*
G01X56398Y350000D02*
Y345050D01*
X56948Y344500D01*
X124000D01*
G01X68602Y354458D02*
Y359205D01*
X68260Y359547D01*
Y363500D01*
G01X80000Y352500D02*
X78042Y354458D01*
X68602D01*
G01Y350000D02*
Y354458D01*
G01X106500Y370795D02*
X78882D01*
G01X75740Y367653D02*
Y363500D01*
G01X78882Y370795D02*
X75740Y367653D01*
G01Y363500D02*
X79001D01*
G01X75457Y375500D02*
X80154D01*
G01X72500Y380000D02*
X74900D01*
X75457Y379443D01*
Y375500D01*
G01X59154Y389500D02*
Y395402D01*
X59441Y395689D01*
Y399839D01*
G01X62000D02*
Y395490D01*
X62101Y395389D01*
X69068D01*
X78957Y385500D01*
X79154D01*
G01X65846Y389500D02*
X65649D01*
X62480Y386331D01*
Y382520D01*
X65000Y380000D01*
G01X67118Y399839D02*
X64559D01*
G01X71547Y401886D02*
X69165D01*
X67118Y399839D01*
G01X71547Y398822D02*
Y401886D01*
G01D02*
Y404950D01*
G01X76272Y412437D02*
Y416092D01*
G01X72617Y412437D02*
X76272D01*
G01D02*
X79927D01*
G01X67118Y399839D02*
Y403691D01*
G01Y399839D02*
X68608D01*
G01X110000Y67500D02*
Y65100D01*
X110600Y64500D01*
X115654D01*
G01X100000Y75000D02*
X87107D01*
X85260Y73153D01*
Y69000D01*
G01X92500Y90000D02*
X91220Y91280D01*
Y97976D01*
G01X115654Y77000D02*
X115457D01*
X105000Y87457D01*
G01X87500Y105000D02*
X86102Y103602D01*
Y97976D01*
G01X95000Y107500D02*
X93780Y106280D01*
Y97976D01*
G01X100000Y90000D02*
X101457Y91457D01*
Y97976D01*
G01X192500Y110000D02*
X182476Y120024D01*
X109694D01*
X105244Y115574D01*
X93881D01*
X93780Y115675D01*
Y120024D01*
G01X187500Y110000D02*
X179276Y118224D01*
X110440D01*
X105990Y113774D01*
X91804D01*
X91220Y114358D01*
Y120024D01*
G01X182500Y110000D02*
X177500Y115000D01*
X109762D01*
X106562Y111800D01*
X91245D01*
X88661Y114334D01*
Y120024D01*
G01X177500Y110000D02*
X90498D01*
X86102Y114322D01*
Y120024D01*
G01X98898D02*
Y128602D01*
X95000Y132500D01*
X85000D01*
G01X104016Y120024D02*
Y131516D01*
X105000Y132500D01*
G01X115154Y164000D02*
Y160832D01*
X109322Y155000D01*
X105000D01*
G01X89846Y148000D02*
X99500D01*
G01X89846Y145329D02*
Y148000D01*
G01D02*
Y150671D01*
G01X115000Y197500D02*
X112484Y194984D01*
Y186965D01*
G01X128035Y212358D02*
X117358D01*
X105547Y200547D01*
G01D02*
X94965D01*
G01X100673Y220035D02*
Y211827D01*
X102500Y210000D01*
G01X110000Y212500D02*
X111827Y214327D01*
X128035D01*
G01X102500Y195000D02*
Y197400D01*
X101321Y198579D01*
X94965D01*
G01X102500Y205000D02*
X99256Y208244D01*
X99118D01*
X97327Y206453D01*
X94965D01*
G01X110000Y235000D02*
X108547Y233547D01*
Y220035D01*
G01X102642D02*
Y229858D01*
X92500Y240000D01*
G01X112484Y220035D02*
Y227438D01*
X120046Y235000D01*
X199500D01*
X212000Y247500D01*
G01X110516Y220035D02*
Y228016D01*
X120000Y237500D01*
X192000D01*
X212000Y257500D01*
G01X106579Y220035D02*
Y236579D01*
X110000Y240000D01*
X184500D01*
X212000Y267500D01*
G01Y277500D02*
X176300Y241800D01*
X109254D01*
X104610Y237156D01*
Y220035D01*
G01X97097Y277165D02*
X104665D01*
X117500Y290000D01*
G01X124000Y324500D02*
X119257D01*
X105000Y310243D01*
Y305000D01*
G01X85846Y385500D02*
Y379668D01*
X86846Y378668D01*
Y375500D01*
G01D02*
X92000D01*
X92500Y375000D01*
G01X122500Y405000D02*
X117673D01*
X107878Y395205D01*
X106500D01*
G01D02*
X94795D01*
X92500Y397500D01*
G01X122346Y77000D02*
Y91522D01*
G01Y64500D02*
X125000Y67154D01*
Y70000D01*
G01X122346Y77000D02*
X125000Y74346D01*
Y70000D01*
G01X115457Y91522D02*
X115654D01*
G01X122008Y142500D02*
Y157343D01*
X115351Y164000D01*
X115154D01*
G01X120358Y186965D02*
Y182142D01*
X122500Y180000D01*
G01X116421Y186965D02*
Y173921D01*
X115000Y172500D01*
G01X118390Y186965D02*
Y176610D01*
X120000Y175000D01*
X132500D01*
G01X212000Y97500D02*
X217500Y103000D01*
Y109999D01*
X215155Y112344D01*
X209993D01*
X197500Y124837D01*
Y136908D01*
X147443Y186965D01*
X122327D01*
G01X115000Y205000D02*
X122327Y197673D01*
Y186965D01*
G01X152154Y164000D02*
X121846D01*
G01X122500Y172500D02*
X118481Y168481D01*
Y167168D01*
X121649Y164000D01*
X121846D01*
G01X128035Y210390D02*
X145390D01*
X152500Y217500D01*
G01X212000Y187500D02*
X198800Y200700D01*
X154622D01*
X148869Y206453D01*
X128035D01*
G01X120000Y207500D02*
X121698Y209198D01*
X122928D01*
X125673Y206453D01*
X128035D01*
G01X212000Y197500D02*
X201079Y208421D01*
X128035D01*
G01Y200547D02*
X147137D01*
X190184Y157500D01*
X212000D01*
G01X173000Y188654D02*
X164122D01*
X148292Y204484D01*
X128035D01*
G01X212000Y167500D02*
X182730D01*
X147714Y202516D01*
X128035D01*
G01X212000Y117500D02*
X200000Y129500D01*
Y137500D01*
X144827Y192673D01*
X128035D01*
G01X212000Y127500D02*
X208786Y130714D01*
Y131260D01*
X145404Y194642D01*
X128035D01*
G01Y196610D02*
X145982D01*
X205092Y137500D01*
X212000D01*
G01X128035Y198579D02*
X146559D01*
X197638Y147500D01*
X212000D01*
G01X128035Y214327D02*
X139327D01*
G01X117500Y247500D02*
X125000Y255000D01*
Y292500D01*
X115000Y302500D01*
G01X127500Y307500D02*
Y252500D01*
X122500Y247500D01*
G01X212000Y237500D02*
X207000Y232500D01*
X120092D01*
X114453Y226861D01*
Y220035D01*
G01X212000Y227500D02*
X207257D01*
X204057Y230700D01*
X120838D01*
X116421Y226283D01*
Y220035D01*
G01X212000Y217500D02*
X202000Y227500D01*
X120612D01*
X118390Y225278D01*
Y220035D01*
G01X212000Y207500D02*
X194800Y224700D01*
X120870D01*
X120358Y224188D01*
Y220035D01*
G01X147500Y220000D02*
X147465Y220035D01*
X122327D01*
G01X145000Y245000D02*
Y252500D01*
X140335Y257165D01*
X133711D01*
G01X167500Y245000D02*
X152500D01*
X150000Y247500D01*
Y252500D01*
X140335Y262165D01*
X133711D01*
G01Y272165D02*
X139565D01*
X142500Y275100D01*
Y277500D01*
G01X145300Y267500D02*
X143253Y269547D01*
X138849D01*
X136467Y267165D01*
X133711D01*
G01Y282165D02*
Y291211D01*
X142500Y300000D01*
Y314000D01*
X141500Y315000D01*
X136649D01*
X128844Y322805D01*
Y329656D01*
X124000Y334500D01*
G01X133711Y282165D02*
X152814D01*
X157649Y287000D01*
X157846D01*
G01X140000Y290000D02*
Y287800D01*
X141299Y286501D01*
X142994D01*
X143493Y287000D01*
X151154D01*
G01X134000Y324500D02*
Y334500D01*
G01X156000D02*
X134000D01*
G01D02*
Y338746D01*
G01X129754Y334500D02*
X134000D01*
G01X124000Y344500D02*
Y334500D01*
G01X137240Y374740D02*
X124000Y361500D01*
Y344500D01*
G01X133500Y387149D02*
Y390587D01*
G01X129760Y381413D02*
Y374760D01*
X125000Y370000D01*
G01X137240Y374740D02*
Y381413D01*
G01X142500Y372500D02*
X139480D01*
X137240Y374740D01*
G01X133500Y390587D02*
Y394025D01*
G01X149587Y91240D02*
X153031D01*
G01D02*
Y94469D01*
X146472Y101028D01*
G01X149587Y89376D02*
Y91240D01*
G01D02*
Y93104D01*
G01X146149Y91240D02*
X149587D01*
G01X152154Y164000D02*
Y152845D01*
X157992Y147007D01*
Y142500D01*
G01X158846Y164000D02*
Y166671D01*
G01Y164000D02*
X161714D01*
G01X212000Y197500D02*
X202000Y207500D01*
X160000D01*
G01X173000Y195346D02*
X167154D01*
X165000Y197500D01*
G01X196500Y334500D02*
X185000Y323000D01*
Y277500D01*
X155000Y247500D01*
G01X167500Y265000D02*
X180000Y277500D01*
G01X157846Y287000D02*
Y278367D01*
X158260Y277953D01*
Y274000D01*
G01X150000Y272500D02*
X152654Y269846D01*
X154500D01*
X158260Y273606D01*
Y274000D01*
G01X157846Y287000D02*
X162988D01*
X163488Y287500D01*
X166654D01*
G01X166000Y344500D02*
X156000Y334500D01*
G01X166000Y340254D02*
Y344500D01*
G01D02*
Y348746D01*
G01X161754Y344500D02*
X166000D01*
G01D02*
X170246D01*
G01X196205Y382500D02*
X149654D01*
G01X171795Y375000D02*
Y367796D01*
X166499Y362500D01*
X162500D01*
G01Y377500D02*
X160000Y375000D01*
X156346D01*
G01X149654Y393000D02*
Y389832D01*
X151986Y387500D01*
X157500D01*
G01X156346Y393000D02*
Y396168D01*
X152514Y400000D01*
X142500D01*
G01X171795Y404000D02*
Y396796D01*
X167999Y393000D01*
X156346D01*
G01X176000Y92846D02*
Y99000D01*
G01X173000Y188654D02*
X200846D01*
X212000Y177500D01*
G01X196205Y404000D02*
Y382500D01*
G01D02*
Y375000D01*
G01Y368294D02*
Y375000D01*
G01X190877D02*
X196205D01*
G01D02*
X201533D01*
G01X196205Y404000D02*
Y410706D01*
G01X190877Y404000D02*
X196205D01*
G01D02*
X201533D01*
G01X212000Y103254D02*
Y107500D01*
G01X207754D02*
X212000D01*
G54D23*
X67118Y399839D03*
X64559D03*
X62000D03*
X59441D03*
X56882D03*
G54D14*
X25000Y382500D03*
X42500Y92500D03*
X47500Y107500D03*
Y117500D03*
Y132500D03*
X32500Y162500D03*
X35000Y157500D03*
Y140000D03*
X54846Y175362D03*
X35362D03*
X52500Y200000D03*
X35362Y209638D03*
X45000Y237500D03*
Y230000D03*
Y247500D03*
X35000Y242500D03*
Y257500D03*
X30000Y250000D03*
Y260000D03*
Y270000D03*
X45000Y275000D03*
X40000Y332500D03*
X45000Y345000D03*
X47500Y362500D03*
X50000Y392500D03*
X38114Y393114D03*
X80000Y87500D03*
X85000Y82500D03*
X57500Y95000D03*
X75000Y102500D03*
X82500Y110000D03*
X65000Y132500D03*
X62500Y110000D03*
X85000Y132500D03*
X70000Y160000D03*
X62500Y140000D03*
X65000Y162500D03*
X65500Y148000D03*
X75500D03*
X65000Y175000D03*
Y190000D03*
X80000D03*
X75500Y182000D03*
X82500Y207500D03*
X75000Y205000D03*
X79700Y200000D03*
X65000Y202500D03*
X67846Y219654D03*
X57500Y210000D03*
X75000Y242500D03*
Y227500D03*
X62000Y226346D03*
X82500Y247500D03*
X57500Y252500D03*
X80000Y352500D03*
X72500Y380000D03*
X65000D03*
X110000Y67500D03*
X100000Y75000D03*
X112500Y97500D03*
X102500Y82500D03*
X92500Y90000D03*
X90000Y85000D03*
X87500Y105000D03*
X105000Y87457D03*
X100000Y90000D03*
Y107500D03*
X110000Y127500D03*
X95000Y107500D03*
X105000Y132500D03*
Y155000D03*
X99500Y148000D03*
X100000Y162500D03*
Y167500D03*
X87000Y182000D03*
X110000Y212500D03*
X102500Y210000D03*
Y195000D03*
Y205000D03*
X110000Y235000D03*
X92500Y240000D03*
X87500Y225000D03*
X105000Y262500D03*
X87500Y285000D03*
X105000Y305000D03*
X92500Y375000D03*
Y397500D03*
X140000Y112500D03*
X137500Y127500D03*
X117500Y125000D03*
X130000D03*
X125000Y107500D03*
X122500Y180000D03*
X115000Y172500D03*
X132500Y175000D03*
X122500Y172500D03*
X120000Y207500D03*
X139327Y214327D03*
X115000Y205000D03*
Y197500D03*
X117500Y247500D03*
X122500D03*
X115000Y262500D03*
X142500Y277500D03*
X115000Y302500D03*
X140000Y290000D03*
X117500D03*
X127500Y307500D03*
X125000Y370000D03*
X142500Y372500D03*
X122500Y405000D03*
X142500Y400000D03*
X146472Y101028D03*
X152500Y112500D03*
X167500Y157500D03*
X152500Y217500D03*
X160000Y207500D03*
X165000Y197500D03*
X147500Y220000D03*
X145000Y245000D03*
X167500D03*
X155000Y247500D03*
X147500Y262500D03*
X167500Y265000D03*
X150000Y272500D03*
X145300Y267500D03*
X162500Y362500D03*
Y377500D03*
X157500Y387500D03*
X176000Y99000D03*
X192500Y110000D03*
X187500D03*
X182500D03*
X177500D03*
X180000Y277500D03*
G54D33*
G01X45000Y247500D02*
X50346D01*
G01D02*
X62346Y235500D01*
G01X92500Y240000D02*
X90000D01*
X82500Y247500D01*
G01X62346Y235500D02*
Y232531D01*
G01X62000Y232185D02*
Y226346D01*
G01X62346Y232531D02*
X62000Y232185D01*
G01X57500Y252500D02*
X60500Y249500D01*
G01D02*
X68154D01*
G01X71547Y401886D02*
X83114D01*
G01D02*
X106500Y378500D01*
G01X92740Y69000D02*
X101000D01*
G01D02*
X112500Y57500D01*
X125000D01*
X133000Y65500D01*
G01X112500Y97500D02*
X115457Y94543D01*
Y91522D01*
G01X104016Y97976D02*
Y93627D01*
X106121Y91522D01*
X115457D01*
G01X101457Y146043D02*
Y120024D01*
G01X100000Y162500D02*
X99000Y161500D01*
G01X99500Y148000D02*
X101457Y146043D01*
G01X99000Y161500D02*
X89346D01*
G01X115000Y262500D02*
X105000D01*
G01X106500Y370795D02*
X107878D01*
X127670Y390587D01*
G01X106500Y378500D02*
Y370795D01*
G01X133000Y65500D02*
Y98154D01*
G01X143598D02*
X133000D01*
G01X127670Y390587D02*
X133500D01*
G01X141567D02*
X133500D01*
G01X149654Y382500D02*
X141567Y390587D01*
G01X146472Y101028D02*
X143598Y98154D01*
G01X158846Y164000D02*
Y160832D01*
G01D02*
X162178Y157500D01*
X167500D01*
G01X147500Y262500D02*
X158693D01*
X165740Y269547D01*
G01Y274000D02*
Y274394D01*
X173346Y282000D01*
G01X165740Y269547D02*
Y274000D01*
G01X166000Y344500D02*
X173346Y337154D01*
G01X149654Y375000D02*
Y360846D01*
G01D02*
X166000Y344500D01*
G01X149654Y382500D02*
Y375000D01*
G01X173346Y282000D02*
Y287500D01*
G01Y337154D02*
Y287500D01*
G54D15*
X56260Y103500D03*
Y125000D03*
Y115500D03*
X53740Y139500D03*
X46260D03*
X55240Y159500D03*
X47760D03*
X85260Y69000D03*
X63740Y103500D03*
Y125000D03*
Y115500D03*
X75740Y363500D03*
X68260D03*
X92740Y69000D03*
X165740Y274000D03*
X158260D03*
G54D24*
X112484Y186965D03*
X110516D03*
X108547D03*
X106579D03*
X104610D03*
X102642D03*
X100673D03*
Y220035D03*
X102642D03*
X104610D03*
X106579D03*
X108547D03*
X110516D03*
X112484D03*
X122327Y186965D03*
X120358D03*
X118390D03*
X116421D03*
X114453D03*
Y220035D03*
X116421D03*
X118390D03*
X120358D03*
X122327D03*
G54D34*
G01X22795Y43500D02*
Y72795D01*
X42500Y92500D01*
G01X26693Y338307D02*
Y315000D01*
G01X12500Y370000D02*
X10000Y367500D01*
Y355000D01*
X26693Y338307D01*
G01X27154Y347000D02*
X26957D01*
X23645Y350312D01*
Y359145D01*
X27000Y362500D01*
G01X27154Y347000D02*
Y345346D01*
X40000Y332500D01*
G01X33000Y384346D02*
Y384149D01*
X18851Y370000D01*
G01D02*
X12500D01*
G01X33000Y387711D02*
X30711Y390000D01*
X16486D01*
X12654Y393832D01*
G01X27000Y362500D02*
X33000Y368500D01*
Y377654D01*
G01X12654Y393832D02*
Y397000D01*
G01X42500Y92500D02*
Y122500D01*
X45000Y125000D01*
X56260D01*
G01X47500Y132500D02*
X65000D01*
G01X47500D02*
X46260Y133740D01*
Y139500D01*
G01X62500Y140000D02*
X58846Y143654D01*
X57500D01*
X53740Y139894D01*
Y139500D01*
G01X35000Y242500D02*
Y257500D01*
G01X45000Y345000D02*
Y340000D01*
X70000Y315000D01*
G01X33846Y347000D02*
X43000D01*
X45000Y345000D01*
G01X38114Y393114D02*
X42000Y389228D01*
G01Y384846D02*
X37347D01*
G01X33000Y384346D02*
Y387711D01*
G01X42000Y389228D02*
Y384846D01*
G01X36847Y384346D02*
X33000D01*
G01X37347Y384846D02*
X36847Y384346D01*
G01X50000Y392500D02*
X56882Y399382D01*
Y399839D01*
G01X52453Y401886D02*
X47728Y406611D01*
G01X56310Y412437D02*
X47728D01*
G01Y406611D02*
Y412437D01*
G01X80000Y87500D02*
X78302Y89198D01*
Y92834D01*
X80984Y95516D01*
Y97976D01*
G01X85000Y82500D02*
X83543Y83957D01*
Y97976D01*
G01X65000Y132500D02*
X63740Y131240D01*
Y125000D01*
G01X87500Y285000D02*
Y297500D01*
X70000Y315000D01*
G01X64559Y399839D02*
Y404188D01*
X56310Y412437D01*
G01X71547Y401886D02*
X76272Y406611D01*
G01D02*
Y412437D01*
G01X100000Y107500D02*
X98898Y106398D01*
Y97976D01*
G01X102500Y82500D02*
X96339Y88661D01*
Y97976D01*
G01X90000Y85000D02*
X88661Y86339D01*
Y97976D01*
G01X125000Y104846D02*
X103978D01*
X101457Y102325D01*
Y97976D01*
G01X110000Y127500D02*
X112500Y130000D01*
X135000D01*
X137500Y127500D01*
G01X94965Y214327D02*
Y217535D01*
X87500Y225000D01*
G01X140413Y87500D02*
Y74587D01*
X145000Y70000D01*
X178562D01*
X183370Y65192D01*
Y60055D01*
G01X133000Y104846D02*
X125000D01*
G01D02*
Y107500D01*
G01X152500Y112500D02*
X140000D01*
G01X130000Y125000D02*
X117500D01*
G01X194654Y43500D02*
X178999D01*
X162444Y60055D01*
X145574D01*
G01X149587Y83760D02*
X170438D01*
X172832Y86154D01*
X176000D01*
G01X153031Y91240D02*
X156240D01*
X167500Y102500D01*
X207000D01*
G01X201346Y43500D02*
Y76846D01*
X212000Y87500D01*
G01X207000Y102500D02*
X212000Y107500D01*
G54D16*
X47000Y215654D03*
Y222346D03*
X42000Y378154D03*
Y384846D03*
X33000Y377654D03*
Y384346D03*
X53000Y379846D03*
Y373154D03*
X70500Y95846D03*
Y89154D03*
X74500Y114154D03*
Y120846D03*
Y219654D03*
X62000D03*
X74500Y226346D03*
X62000D03*
X70000Y275654D03*
X70500Y267346D03*
Y260654D03*
X70000Y282346D03*
X133000Y104846D03*
Y98154D03*
X176000Y92846D03*
Y86154D03*
X173000Y188654D03*
Y195346D03*
G54D25*
X94965Y192673D03*
Y194642D03*
Y196610D03*
Y198579D03*
Y200547D03*
Y202516D03*
Y204484D03*
Y206453D03*
Y208421D03*
Y210390D03*
Y212358D03*
Y214327D03*
X128035D03*
Y212358D03*
Y210390D03*
Y208421D03*
Y206453D03*
Y204484D03*
Y202516D03*
Y200547D03*
Y198579D03*
Y196610D03*
Y194642D03*
Y192673D03*
G54D35*
G01X0Y8000D02*
Y421134D01*
G02X8000Y429134I8000J0D01*
G01X224282D01*
G02X232282Y421134I0J-8000D01*
G01Y8000D01*
G02X224282Y0I-8000J0D01*
G01X8000D01*
G02X0Y8000I0J8000D01*
G01Y0D02*
X-2D01*
G01X21300Y15000D02*
G03I-6300J0D01*
G01Y414000D02*
G03I-6300J0D01*
G01X223500Y15000D02*
G03I-6300J0D01*
G01Y414000D02*
G03I-6300J0D01*
G54D26*
X97097Y247165D03*
Y252165D03*
Y257165D03*
Y262165D03*
Y267165D03*
Y272165D03*
Y277165D03*
Y282165D03*
X133711Y247165D03*
Y277165D03*
Y272165D03*
Y267165D03*
Y262165D03*
Y257165D03*
Y252165D03*
Y282165D03*
G54D17*
X70000Y315000D03*
G54D18*
X56398Y350000D03*
X68602D03*
G54D27*
X106500Y370795D03*
Y395205D03*
G54D28*
X145574Y60055D03*
X183370D03*
G54D19*
X47728Y412437D03*
X76272D03*
G54D29*
X140413Y87500D03*
X149587Y91240D03*
Y83760D03*
M02*
