G04 ================== begin FILE IDENTIFICATION RECORD ==================*
G04 Layout Name:  C:/Users/Pizza/Desktop/stm32pcb/pcb_design/stm32f103c8t6.brd*
G04 Film Name:    PASTE_TOP*
G04 File Format:  Gerber RS274X*
G04 File Origin:  Cadence Allegro 16.6-P004*
G04 Origin Date:  Wed May 17 18:36:36 2023*
G04 *
G04 Layer:  PIN/PASTEMASK_TOP*
G04 Layer:  PACKAGE GEOMETRY/PASTEMASK_TOP*
G04 Layer:  BOARD GEOMETRY/OUTLINE*
G04 *
G04 Offset:    (0.00 0.00)*
G04 Mirror:    No*
G04 Mode:      Positive*
G04 Rotation:  0*
G04 FullContactRelief:  No*
G04 UndefLineWidth:     0.00*
G04 ================== end FILE IDENTIFICATION RECORD ====================*
%FSLAX55Y55*MOIN*%
%IR0*IPPOS*OFA0.00000B0.00000*MIA0B0*SFA1.00000B1.00000*%
%ADD10R,.09252X.12008*%
%ADD23R,.12008X.09252*%
%ADD24R,.11811X.07874*%
%ADD26R,.18386X.06614*%
%ADD16R,.054X.075*%
%ADD11R,.11811X.35433*%
%ADD15C,.35433*%
%ADD27R,.02323X.05472*%
%ADD25R,.05472X.02323*%
%ADD20R,.01181X.05906*%
%ADD21R,.05906X.01181*%
%ADD14R,.03937X.04331*%
%ADD12R,.04331X.03937*%
%ADD13R,.05118X.05906*%
%ADD22R,.07874X.02362*%
%ADD19R,.01575X.06299*%
%ADD17R,.01378X.06299*%
%ADD18R,.01969X.03937*%
%ADD28C,.006*%
G75*
%LPD*%
G75*
G54D10*
X22795Y43500D03*
X47205D03*
X171795Y375000D03*
Y404000D03*
X196205Y375000D03*
Y404000D03*
G54D20*
X112484Y186965D03*
X110516D03*
X108547D03*
X106579D03*
X104610D03*
X102642D03*
X100673D03*
Y220035D03*
X102642D03*
X104610D03*
X106579D03*
X108547D03*
X110516D03*
X112484D03*
X122327Y186965D03*
X120358D03*
X118390D03*
X116421D03*
X114453D03*
Y220035D03*
X116421D03*
X118390D03*
X120358D03*
X122327D03*
G54D11*
X26693Y315000D03*
G54D12*
X27154Y347000D03*
X19346Y378000D03*
X12654D03*
X19346Y397000D03*
X12654D03*
X53346Y76000D03*
X46654D03*
X54846Y175362D03*
X48154D03*
X55654Y235500D03*
X33846Y347000D03*
X70846Y77000D03*
X64154D03*
X82654Y161500D03*
X83154Y148000D03*
X62346Y235500D03*
X74846Y249500D03*
X68154D03*
X65846Y389500D03*
X59154D03*
X85846Y385500D03*
X79154D03*
X80154Y375500D03*
X89346Y161500D03*
X89846Y148000D03*
X86846Y375500D03*
X122346Y77000D03*
X115654D03*
X122346Y64500D03*
X115654D03*
X122346Y91522D03*
X115654D03*
X121846Y164000D03*
X115154D03*
X158846D03*
X152154D03*
X166654Y287500D03*
X151154Y287000D03*
X157846D03*
X156346Y375000D03*
X149654D03*
X156346Y393000D03*
X149654D03*
X194654Y43500D03*
X173346Y287500D03*
X201346Y43500D03*
G54D21*
X94965Y192673D03*
Y194642D03*
Y196610D03*
Y198579D03*
Y200547D03*
Y202516D03*
Y204484D03*
Y206453D03*
Y208421D03*
Y210390D03*
Y212358D03*
Y214327D03*
X128035D03*
Y212358D03*
Y210390D03*
Y208421D03*
Y206453D03*
Y204484D03*
Y202516D03*
Y200547D03*
Y198579D03*
Y196610D03*
Y194642D03*
Y192673D03*
G54D22*
X97097Y247165D03*
Y252165D03*
Y257165D03*
Y262165D03*
Y267165D03*
Y272165D03*
Y277165D03*
Y282165D03*
X133711Y247165D03*
Y277165D03*
Y272165D03*
Y267165D03*
Y262165D03*
Y257165D03*
Y252165D03*
Y282165D03*
G54D13*
X56260Y103500D03*
Y125000D03*
Y115500D03*
X53740Y139500D03*
X46260D03*
X55240Y159500D03*
X47760D03*
X85260Y69000D03*
X63740Y103500D03*
Y125000D03*
Y115500D03*
X75740Y363500D03*
X68260D03*
X92740Y69000D03*
X165740Y274000D03*
X158260D03*
G54D14*
X47000Y215654D03*
Y222346D03*
X42000Y378154D03*
Y384846D03*
X33000Y377654D03*
Y384346D03*
X53000Y379846D03*
Y373154D03*
X70500Y95846D03*
Y89154D03*
X74500Y114154D03*
Y120846D03*
Y219654D03*
X62000D03*
X74500Y226346D03*
X62000D03*
X70000Y275654D03*
X70500Y267346D03*
Y260654D03*
X70000Y282346D03*
X133000Y104846D03*
Y98154D03*
X176000Y92846D03*
Y86154D03*
X173000Y188654D03*
Y195346D03*
G54D23*
X106500Y370795D03*
Y395205D03*
G54D15*
X70000Y315000D03*
G54D24*
X145574Y60055D03*
X183370D03*
G54D25*
X140413Y87500D03*
X149587Y91240D03*
Y83760D03*
G54D16*
X56398Y350000D03*
X68602D03*
G54D17*
X83543Y97976D03*
X80984D03*
Y120024D03*
X83543D03*
X104016Y97976D03*
X101457D03*
X98898D03*
X96339D03*
X93780D03*
X91220D03*
X88661D03*
X86102D03*
Y120024D03*
X88661D03*
X91220D03*
X93780D03*
X96339D03*
X98898D03*
X101457D03*
X104016D03*
G54D26*
X122008Y142500D03*
X157992D03*
G54D18*
X69862Y209500D03*
X65531D03*
G54D27*
X133500Y390587D03*
X137240Y381413D03*
X129760D03*
G54D28*
G01X0Y8000D02*
Y421134D01*
G02X8000Y429134I8000J0D01*
G01X224282D01*
G02X232282Y421134I0J-8000D01*
G01Y8000D01*
G02X224282Y0I-8000J0D01*
G01X8000D01*
G02X0Y8000I0J8000D01*
G01Y0D02*
X-2D01*
G01X21300Y15000D02*
G03I-6300J0D01*
G01Y414000D02*
G03I-6300J0D01*
G01X223500Y15000D02*
G03I-6300J0D01*
G01Y414000D02*
G03I-6300J0D01*
G54D19*
X67118Y399839D03*
X64559D03*
X62000D03*
X59441D03*
X56882D03*
M02*
